<svg width="134" height="134" viewBox="0 0 134 134" fill="none" xmlns="http://www.w3.org/2000/svg">
<g filter="url(#filter0_i_260_256)">
<path d="M67.2509 96.6401H33.9446C32.5818 96.6401 31.7641 95.897 31.8841 94.7382C31.8865 94.5143 31.9346 94.2928 32.0254 94.0872C32.1161 93.8824 32.2478 93.6982 32.4121 93.5459C32.5763 93.3936 32.7699 93.2756 32.9809 93.201C33.1919 93.1264 33.4159 93.0952 33.6393 93.1104C34.3152 93.1104 34.5442 92.9574 34.5442 92.2363C34.5442 83.2248 34.5442 74.2138 34.5442 65.2027C34.5442 64.5361 34.337 64.3722 33.7047 64.3831C33.468 64.3966 33.2311 64.3611 33.0086 64.2791C32.7861 64.1971 32.5827 64.0705 32.4111 63.9067C32.2394 63.7428 32.1031 63.5452 32.0105 63.3264C31.918 63.1077 31.8713 62.8723 31.8731 62.6347C31.8643 62.3978 31.9035 62.1615 31.9886 61.9403C32.0737 61.7191 32.2027 61.5174 32.3679 61.3478C32.533 61.1781 32.731 61.0441 32.9496 60.9535C33.1681 60.8629 33.4028 60.8178 33.6393 60.821H100.426C100.798 60.7666 101.178 60.8223 101.519 60.9815C101.86 61.1407 102.147 61.3962 102.345 61.7168C102.517 61.9901 102.608 62.3066 102.608 62.6293C102.608 62.9522 102.517 63.2684 102.345 63.5418C102.186 63.8388 101.939 64.0795 101.639 64.2319C101.339 64.3843 101 64.441 100.666 64.3941C100.11 64.3941 99.9139 64.5033 99.9139 65.1152C99.9139 74.2065 99.9139 83.3124 99.9139 92.4328C99.9139 92.968 100.045 93.1538 100.612 93.1538C101.898 93.1538 102.607 93.8314 102.595 94.9567C102.585 96.0827 101.844 96.6835 100.514 96.6835L67.2509 96.6401ZM48.1829 78.6863C48.1829 83.221 48.1829 87.7557 48.1829 92.2904C48.1829 92.8698 48.281 93.121 48.9461 93.1104C52.522 93.1104 56.1015 93.1104 59.6847 93.1104C60.3279 93.1104 60.4479 92.9025 60.4479 92.3018C60.4479 83.2469 60.4479 74.181 60.4479 65.1042C60.4479 64.5032 60.2626 64.3831 59.7065 64.3831C56.1524 64.3831 52.5982 64.3831 49.0441 64.3831C48.3464 64.3831 48.172 64.5687 48.172 65.2571C48.1938 69.7372 48.1829 74.2063 48.1829 78.6863ZM86.2421 78.6863C86.2421 74.1736 86.2421 69.6718 86.2421 65.1699C86.2421 64.547 86.0786 64.3831 85.4684 64.3941C81.914 64.3941 78.3641 64.3941 74.817 64.3941C74.1846 64.3941 74.032 64.5579 74.032 65.1808C74.032 74.2211 74.032 83.2545 74.032 92.2797C74.032 92.9353 74.1955 93.1317 74.8605 93.121C78.3853 93.121 81.9072 93.121 85.4245 93.121C86.1119 93.121 86.2535 92.914 86.2421 92.2797C86.2315 87.7344 86.2421 83.1989 86.2421 78.6757V78.6863ZM44.2689 78.7739C44.2689 74.2392 44.2689 69.7045 44.2689 65.1699C44.2689 64.5251 44.0836 64.3723 43.4731 64.3941C42.034 64.3941 40.584 64.3941 39.1122 64.3941C38.5453 64.3941 38.3491 64.5251 38.36 65.1261C38.36 66.8198 38.36 68.5134 38.36 70.218C38.36 77.5611 38.36 84.9044 38.36 92.247C38.36 92.9353 38.5344 93.1538 39.2321 93.121C40.6167 93.0662 42.0122 93.0662 43.3968 93.121C44.0509 93.121 44.2362 92.9573 44.2253 92.2904C44.258 87.7671 44.2689 83.2652 44.2689 78.7632V78.7739ZM70.1072 78.7739C70.1072 74.2502 70.1072 69.7155 70.1072 65.1808C70.1072 64.6017 69.9655 64.4157 69.3768 64.4376C67.9268 64.4376 66.4877 64.4376 65.0159 64.4376C64.4054 64.4376 64.2091 64.5689 64.22 65.2136C64.22 74.2685 64.22 83.3307 64.22 92.4C64.22 92.968 64.3618 93.1759 64.9614 93.1644C66.3678 93.1644 67.785 93.1104 69.2023 93.1644C69.9 93.1644 70.0854 92.9787 70.0745 92.2904C70.0854 87.7336 70.1072 83.221 70.1072 78.7191V78.7739ZM95.9893 78.7739C95.9893 74.272 95.9893 69.7591 95.9893 65.2571C95.9893 64.5468 95.7925 64.3613 95.1058 64.3941C93.6886 64.3941 92.2714 64.3941 90.8542 64.3941C90.3416 64.3941 90.1349 64.5032 90.1349 65.0824C90.1349 74.2101 90.1349 83.3345 90.1349 92.4548C90.1349 92.968 90.2977 93.121 90.7996 93.1104C92.2494 93.1104 93.6886 93.1104 95.1603 93.1104C95.8803 93.1104 96.0105 92.8698 96.0105 92.2036C95.9674 87.723 95.9893 83.2431 95.9893 78.7632V78.7739Z" fill="#F9C454"/>
</g>
<g filter="url(#filter1_i_260_256)">
<path d="M67.2406 58.1985H30.6092C30.3257 58.1985 30.0532 58.1985 29.7697 58.1985C29.3089 58.2285 28.8521 58.0965 28.478 57.8252C28.1039 57.554 27.8358 57.1606 27.7201 56.7125C27.5915 56.2806 27.6156 55.8174 27.7884 55.4014C27.9613 54.9852 28.2721 54.6415 28.6686 54.4286C30.849 53.0373 33.0295 51.6568 35.2099 50.2873C45.3853 43.8549 55.5607 37.4117 65.7361 30.9575C66.1762 30.6259 66.7119 30.4466 67.2625 30.4466C67.813 30.4466 68.3487 30.6259 68.7888 30.9575C81.0426 38.7375 93.3002 46.503 105.562 54.2539C106.016 54.4435 106.387 54.7912 106.605 55.233C106.824 55.6748 106.875 56.1808 106.75 56.6578C106.656 57.0655 106.433 57.4319 106.115 57.7033C105.797 57.9748 105.401 58.1368 104.984 58.1656C104.708 58.182 104.431 58.182 104.156 58.1656L67.2406 58.1985ZM97.5594 54.1446C97.5594 53.9151 97.4073 53.8823 97.2983 53.8058C87.4352 47.5628 77.5722 41.3163 67.7094 35.066C67.5574 34.936 67.3642 34.8646 67.1643 34.8646C66.9644 34.8646 66.7712 34.936 66.6192 35.066L38.0227 53.1831C37.6084 53.4345 37.2159 53.7184 36.6381 54.1008L97.5594 54.1446Z" fill="#F9C454"/>
</g>
<g filter="url(#filter2_i_260_256)">
<path d="M67.251 103.546H34.2827C33.4763 103.615 32.6669 103.452 31.9497 103.076C31.6978 102.965 31.4837 102.783 31.3334 102.552C31.183 102.321 31.103 102.051 31.103 101.776C31.103 101.5 31.183 101.231 31.3334 100.999C31.4837 100.768 31.6978 100.586 31.9497 100.475C32.3712 100.203 32.8557 100.045 33.3561 100.016C33.6613 100.016 33.9666 100.016 34.2718 100.016H100.295C101.099 99.9453 101.905 100.12 102.607 100.519C102.851 100.63 103.057 100.809 103.203 101.035C103.347 101.261 103.424 101.524 103.424 101.792C103.424 102.06 103.347 102.323 103.203 102.549C103.057 102.775 102.851 102.953 102.607 103.065C102.116 103.381 101.545 103.548 100.961 103.546H67.3165H67.251Z" fill="#F9C454"/>
</g>
<g filter="url(#filter3_i_260_256)">
<path d="M70.0865 43.567C69.9851 43.5783 69.8827 43.5783 69.7812 43.567C69.669 43.5742 69.5578 43.5433 69.4651 43.4794C69.4116 43.4275 69.3705 43.364 69.3451 43.2938C69.1617 42.8462 68.8649 42.4544 68.4839 42.1573C68.1156 41.8756 67.671 41.7119 67.2084 41.6876V44.7907C67.5681 44.9218 67.9279 45.075 68.2985 45.2389C68.6548 45.3934 68.9885 45.5956 69.2906 45.8399C69.5865 46.0713 69.8314 46.3612 70.0102 46.6919C70.2055 47.0811 70.2992 47.5135 70.2828 47.9487C70.2858 48.2948 70.2151 48.6374 70.0756 48.9539C69.9295 49.2784 69.7222 49.5716 69.4651 49.8172C69.186 50.0875 68.8611 50.3058 68.5057 50.462C68.0967 50.6365 67.6623 50.7432 67.2193 50.7786V51.7185H67.0012H66.8267C66.7136 51.73 66.5997 51.7071 66.4997 51.6529C66.4695 51.6297 66.445 51.6 66.428 51.5659C66.411 51.5319 66.402 51.4944 66.4016 51.4562V50.757C65.8764 50.7369 65.356 50.6485 64.8535 50.4946C64.4785 50.3707 64.114 50.2173 63.7632 50.0357C63.7632 49.5767 63.6761 49.1397 63.6106 48.7026C63.5452 48.2655 63.4689 47.8395 63.3817 47.4352C63.4854 47.3925 63.5965 47.3702 63.7087 47.3696C63.8077 47.3607 63.9071 47.3838 63.9921 47.4352C64.0686 47.5024 64.1252 47.5893 64.1557 47.6865C64.2576 48.0146 64.3889 48.3327 64.5482 48.637C64.6684 48.8859 64.8265 49.1146 65.017 49.3146C65.1891 49.4973 65.3969 49.6422 65.6275 49.7407C65.8857 49.8444 66.1573 49.9108 66.4343 49.9376V46.4407C66.0963 46.3314 65.7692 46.2223 65.453 46.0911C65.1414 45.9632 64.8481 45.7939 64.5808 45.5883C64.3198 45.3885 64.1043 45.1353 63.9486 44.8453C63.7807 44.4868 63.6986 44.0939 63.7087 43.698C63.7012 43.3243 63.7679 42.9529 63.9049 42.6052C64.0271 42.2838 64.2125 41.9905 64.45 41.7422C64.6911 41.482 64.9799 41.2705 65.3004 41.1194C65.6432 40.9522 66.0119 40.845 66.3907 40.8024V39.9719H66.6087H66.7831C66.8962 39.9617 67.0097 39.9846 67.1102 40.0375C67.1418 40.0618 67.1673 40.0932 67.1843 40.1294C67.2014 40.1655 67.2097 40.2052 67.2084 40.2451V40.9009C67.6117 40.9247 68.0126 40.9794 68.4076 41.0646C68.8725 41.1746 69.3281 41.3207 69.7703 41.5016C69.7703 41.8185 69.7703 42.1681 69.8685 42.5944C69.9666 43.0205 70.0211 43.2501 70.0865 43.567ZM65.126 42.9987C65.1181 43.163 65.1474 43.327 65.2116 43.4784C65.2758 43.6297 65.3733 43.7646 65.4967 43.873C65.7803 44.1066 66.0961 44.298 66.4343 44.4412V41.6876C66.0952 41.7379 65.7754 41.8773 65.5076 42.0917C65.3776 42.2024 65.2754 42.3423 65.2091 42.4999C65.1429 42.6574 65.1143 42.8282 65.126 42.9987ZM68.6365 48.4623C68.6503 48.2628 68.6224 48.0627 68.5548 47.8746C68.4873 47.6864 68.3814 47.5145 68.244 47.3696C67.952 47.1028 67.6164 46.8884 67.2519 46.7357V49.9376C67.6669 49.919 68.0581 49.7383 68.3422 49.4347C68.548 49.162 68.6522 48.8257 68.6365 48.4841V48.4623Z" fill="#F9C454"/>
</g>
<defs>
<filter id="filter0_i_260_256" x="31.8719" y="60.8007" width="70.7357" height="36.6303" filterUnits="userSpaceOnUse" color-interpolation-filters="sRGB">
<feFlood flood-opacity="0" result="BackgroundImageFix"/>
<feBlend mode="normal" in="SourceGraphic" in2="BackgroundImageFix" result="shape"/>
<feColorMatrix in="SourceAlpha" type="matrix" values="0 0 0 0 0 0 0 0 0 0 0 0 0 0 0 0 0 0 127 0" result="hardAlpha"/>
<feOffset dy="1.49509"/>
<feGaussianBlur stdDeviation="0.373771"/>
<feComposite in2="hardAlpha" operator="arithmetic" k2="-1" k3="1"/>
<feColorMatrix type="matrix" values="0 0 0 0 0 0 0 0 0 0 0 0 0 0 0 0 0 0 0.4 0"/>
<feBlend mode="normal" in2="shape" result="effect1_innerShadow_260_256"/>
</filter>
<filter id="filter1_i_260_256" x="27.6385" y="30.4466" width="79.1784" height="28.5036" filterUnits="userSpaceOnUse" color-interpolation-filters="sRGB">
<feFlood flood-opacity="0" result="BackgroundImageFix"/>
<feBlend mode="normal" in="SourceGraphic" in2="BackgroundImageFix" result="shape"/>
<feColorMatrix in="SourceAlpha" type="matrix" values="0 0 0 0 0 0 0 0 0 0 0 0 0 0 0 0 0 0 127 0" result="hardAlpha"/>
<feOffset dy="1.49509"/>
<feGaussianBlur stdDeviation="0.373771"/>
<feComposite in2="hardAlpha" operator="arithmetic" k2="-1" k3="1"/>
<feColorMatrix type="matrix" values="0 0 0 0 0 0 0 0 0 0 0 0 0 0 0 0 0 0 0.4 0"/>
<feBlend mode="normal" in2="shape" result="effect1_innerShadow_260_256"/>
</filter>
<filter id="filter2_i_260_256" x="31.103" y="100.001" width="72.3214" height="4.30815" filterUnits="userSpaceOnUse" color-interpolation-filters="sRGB">
<feFlood flood-opacity="0" result="BackgroundImageFix"/>
<feBlend mode="normal" in="SourceGraphic" in2="BackgroundImageFix" result="shape"/>
<feColorMatrix in="SourceAlpha" type="matrix" values="0 0 0 0 0 0 0 0 0 0 0 0 0 0 0 0 0 0 127 0" result="hardAlpha"/>
<feOffset dy="1.49509"/>
<feGaussianBlur stdDeviation="0.373771"/>
<feComposite in2="hardAlpha" operator="arithmetic" k2="-1" k3="1"/>
<feColorMatrix type="matrix" values="0 0 0 0 0 0 0 0 0 0 0 0 0 0 0 0 0 0 0.4 0"/>
<feBlend mode="normal" in2="shape" result="effect1_innerShadow_260_256"/>
</filter>
<filter id="filter3_i_260_256" x="63.3817" y="39.9695" width="6.90298" height="12.4994" filterUnits="userSpaceOnUse" color-interpolation-filters="sRGB">
<feFlood flood-opacity="0" result="BackgroundImageFix"/>
<feBlend mode="normal" in="SourceGraphic" in2="BackgroundImageFix" result="shape"/>
<feColorMatrix in="SourceAlpha" type="matrix" values="0 0 0 0 0 0 0 0 0 0 0 0 0 0 0 0 0 0 127 0" result="hardAlpha"/>
<feOffset dy="1.49509"/>
<feGaussianBlur stdDeviation="0.373771"/>
<feComposite in2="hardAlpha" operator="arithmetic" k2="-1" k3="1"/>
<feColorMatrix type="matrix" values="0 0 0 0 0 0 0 0 0 0 0 0 0 0 0 0 0 0 0.4 0"/>
<feBlend mode="normal" in2="shape" result="effect1_innerShadow_260_256"/>
</filter>
</defs>
</svg>
