<svg width="297" height="328" viewBox="0 0 297 328" fill="none" xmlns="http://www.w3.org/2000/svg">
<path fill-rule="evenodd" clip-rule="evenodd" d="M110.821 319.357C112.246 320.592 115.81 322.65 117.591 323.473C121.511 323.473 135.052 323.473 147.88 328C161.064 323.473 174.249 323.473 178.169 323.473C179.95 323.061 183.514 321.003 184.939 319.357H147.88H110.821Z" fill="#666666"/>
<path fill-rule="evenodd" clip-rule="evenodd" d="M110.821 319.357C112.246 320.592 115.81 322.65 117.591 323.473C121.511 323.473 135.052 323.473 147.88 328V319.357H110.821Z" fill="url(#paint0_linear_260_69)"/>
<path fill-rule="evenodd" clip-rule="evenodd" d="M185.295 319.357C183.87 320.592 180.307 322.65 178.525 323.473C174.605 323.473 161.064 323.473 148.236 328V319.357H185.295Z" fill="url(#paint1_linear_260_69)"/>
<path fill-rule="evenodd" clip-rule="evenodd" d="M29.9324 18.1078H266.183L269.39 14.4039H200.617H147.88H101.2H95.4983H26.7253L29.9324 18.1078Z" fill="url(#paint2_linear_260_69)"/>
<path fill-rule="evenodd" clip-rule="evenodd" d="M266.184 18.1073H29.9329L32.4272 22.2227H263.333L266.184 18.1073Z" fill="url(#paint3_linear_260_69)"/>
<path fill-rule="evenodd" clip-rule="evenodd" d="M15.3226 34.9809C22.8057 33.3347 28.5071 26.75 29.9324 18.1076L26.7254 13.9922C26.7254 23.4577 19.955 31.277 11.7593 31.277L15.3226 34.9809Z" fill="url(#paint4_linear_260_69)"/>
<path fill-rule="evenodd" clip-rule="evenodd" d="M29.9325 18.1073C28.5072 26.7497 22.8058 33.3344 15.3228 34.9805L18.8861 37.8614C25.3002 35.3921 30.2889 29.6305 32.7832 21.8112L29.9325 18.1073Z" fill="url(#paint5_linear_260_69)"/>
<path fill-rule="evenodd" clip-rule="evenodd" d="M15.3226 298.369V34.9817L11.7593 31.2778V302.073L15.3226 298.369Z" fill="url(#paint6_linear_260_69)"/>
<path fill-rule="evenodd" clip-rule="evenodd" d="M15.3228 34.9812V298.369L18.8861 295.488V38.2735L15.3228 34.9812Z" fill="url(#paint7_linear_260_69)"/>
<path fill-rule="evenodd" clip-rule="evenodd" d="M266.183 18.1079C267.608 26.7503 273.31 33.3349 280.793 34.9811L284.356 31.2772C276.161 31.2772 269.39 23.4579 269.39 13.9924L266.183 18.1079Z" fill="url(#paint8_linear_260_69)"/>
<path fill-rule="evenodd" clip-rule="evenodd" d="M280.793 34.9805C273.31 33.3344 267.609 26.7497 266.183 18.1073L263.689 22.2227C265.827 29.6305 270.816 35.3921 277.586 38.2729L280.793 34.9805Z" fill="url(#paint9_linear_260_69)"/>
<path fill-rule="evenodd" clip-rule="evenodd" d="M277.23 38.2735V295.488L280.793 298.369V34.9812L277.23 38.2735Z" fill="url(#paint10_linear_260_69)"/>
<path fill-rule="evenodd" clip-rule="evenodd" d="M280.793 34.9817V298.369L284 302.073V31.2778L280.793 34.9817Z" fill="url(#paint11_linear_260_69)"/>
<path fill-rule="evenodd" clip-rule="evenodd" d="M277.23 295.487C270.816 297.956 265.827 303.718 263.333 311.537L265.827 315.652C267.253 307.01 272.954 300.425 280.437 298.779L277.23 295.487Z" fill="url(#paint12_linear_260_69)"/>
<path fill-rule="evenodd" clip-rule="evenodd" d="M280.793 298.369C273.31 300.015 267.608 306.6 266.183 315.242L269.39 319.357C269.39 309.892 276.161 302.073 284.356 302.073L280.793 298.369Z" fill="url(#paint13_linear_260_69)"/>
<path fill-rule="evenodd" clip-rule="evenodd" d="M263.333 311.127H32.4272L29.9329 315.242H266.184L263.333 311.127Z" fill="url(#paint14_linear_260_69)"/>
<path fill-rule="evenodd" clip-rule="evenodd" d="M266.183 315.242H29.9324L26.7253 319.358H110.821H147.88H185.295H269.39L266.183 315.242Z" fill="url(#paint15_linear_260_69)"/>
<path fill-rule="evenodd" clip-rule="evenodd" d="M29.9324 315.242C28.5071 306.599 22.8057 300.015 15.3226 298.369L11.7593 302.072C19.955 302.072 26.7254 309.892 26.7254 319.357L29.9324 315.242Z" fill="url(#paint16_linear_260_69)"/>
<path fill-rule="evenodd" clip-rule="evenodd" d="M15.3228 298.368C22.8058 300.014 28.5072 306.598 29.9325 315.241L32.4269 311.125C30.2889 303.718 25.3001 297.956 18.5298 295.075L15.3228 298.368Z" fill="url(#paint17_linear_260_69)"/>
<path fill-rule="evenodd" clip-rule="evenodd" d="M95.4983 14.404H200.974C198.836 11.5232 195.272 8.6424 191.709 6.58468C181.019 10.7001 154.65 8.6424 148.236 0C141.822 8.6424 115.453 10.7001 104.763 6.58468C100.843 8.6424 97.6363 11.5232 95.4983 14.404Z" fill="#CCCCCC"/>
<path fill-rule="evenodd" clip-rule="evenodd" d="M95.4983 14.404H147.88V0C141.466 8.6424 115.097 10.7001 104.407 6.58468C100.843 8.6424 97.6363 11.5232 95.4983 14.404Z" fill="url(#paint18_linear_260_69)"/>
<path fill-rule="evenodd" clip-rule="evenodd" d="M200.617 14.404H147.88V0C154.294 8.6424 180.663 10.7001 191.353 6.58468C194.916 8.6424 198.479 11.5232 200.617 14.404Z" fill="url(#paint19_linear_260_69)"/>
<path fill-rule="evenodd" clip-rule="evenodd" d="M143.248 9.87631C132.558 14.4033 112.603 13.9917 101.2 14.4033H147.88V3.29163C147.88 6.58397 147.168 8.23014 143.248 9.87631Z" fill="url(#paint20_linear_260_69)"/>
<path fill-rule="evenodd" clip-rule="evenodd" d="M15.3225 148.98L30.6449 166.676L15.3225 184.372L0 166.676L15.3225 148.98ZM15.3225 155.564L5.70138 166.676L15.3225 177.788L24.9435 166.676L15.3225 155.564Z" fill="#999999"/>
<path fill-rule="evenodd" clip-rule="evenodd" d="M2.8507 166.676L15.3225 152.272V148.98L0 166.676H2.8507Z" fill="url(#paint21_linear_260_69)"/>
<path fill-rule="evenodd" clip-rule="evenodd" d="M15.3226 152.271L2.85083 166.675H5.7015L15.3226 155.563V152.271Z" fill="url(#paint22_linear_260_69)"/>
<path fill-rule="evenodd" clip-rule="evenodd" d="M27.7945 166.676L15.3228 152.272V148.98L30.6452 166.676H27.7945Z" fill="url(#paint23_linear_260_69)"/>
<path fill-rule="evenodd" clip-rule="evenodd" d="M15.3228 152.271L27.7945 166.675H24.9438L15.3228 155.563V152.271Z" fill="url(#paint24_linear_260_69)"/>
<path fill-rule="evenodd" clip-rule="evenodd" d="M2.8507 166.675L15.3225 181.079V184.372L0 166.675H2.8507Z" fill="url(#paint25_linear_260_69)"/>
<path fill-rule="evenodd" clip-rule="evenodd" d="M15.3226 181.079L2.85083 166.675H5.7015L15.3226 177.787V181.079Z" fill="url(#paint26_linear_260_69)"/>
<path fill-rule="evenodd" clip-rule="evenodd" d="M27.7945 166.675L15.3228 181.079V184.372L30.6452 166.675H27.7945Z" fill="url(#paint27_linear_260_69)"/>
<path fill-rule="evenodd" clip-rule="evenodd" d="M15.3228 181.079L27.7945 166.675H24.9438L15.3228 177.787V181.079Z" fill="url(#paint28_linear_260_69)"/>
<path fill-rule="evenodd" clip-rule="evenodd" d="M5.7019 166.676L15.323 155.565L24.9441 166.676L15.323 177.788L5.7019 166.676Z" fill="#990099"/>
<path fill-rule="evenodd" clip-rule="evenodd" d="M9.26514 166.676L15.3229 159.68L21.3806 166.676L15.3229 174.084L9.26514 166.676Z" fill="url(#paint29_linear_260_69)"/>
<path fill-rule="evenodd" clip-rule="evenodd" d="M9.26527 166.676L15.323 159.68V155.565L5.7019 166.676H9.26527Z" fill="url(#paint30_linear_260_69)"/>
<path fill-rule="evenodd" clip-rule="evenodd" d="M21.3805 166.676L15.3228 159.68V155.565L24.9438 166.676H21.3805Z" fill="url(#paint31_linear_260_69)"/>
<path fill-rule="evenodd" clip-rule="evenodd" d="M9.26527 166.675L15.323 174.083V177.787L5.7019 166.675H9.26527Z" fill="url(#paint32_linear_260_69)"/>
<path fill-rule="evenodd" clip-rule="evenodd" d="M21.3805 166.675L15.3228 174.083V177.787L24.9438 166.675H21.3805Z" fill="url(#paint33_linear_260_69)"/>
<path fill-rule="evenodd" clip-rule="evenodd" d="M280.793 148.98L296.115 166.676L280.793 184.372L265.47 166.676L280.793 148.98ZM280.793 155.564L271.172 166.676L280.793 177.788L290.414 166.676L280.793 155.564Z" fill="#999999"/>
<path fill-rule="evenodd" clip-rule="evenodd" d="M268.321 166.676L280.793 152.272V148.98L265.47 166.676H268.321Z" fill="url(#paint34_linear_260_69)"/>
<path fill-rule="evenodd" clip-rule="evenodd" d="M280.793 152.271L268.321 166.675H271.172L280.793 155.563V152.271Z" fill="url(#paint35_linear_260_69)"/>
<path fill-rule="evenodd" clip-rule="evenodd" d="M293.265 166.676L280.793 152.272V148.98L296.115 166.676H293.265Z" fill="url(#paint36_linear_260_69)"/>
<path fill-rule="evenodd" clip-rule="evenodd" d="M280.793 152.271L293.265 166.675H290.414L280.793 155.563V152.271Z" fill="url(#paint37_linear_260_69)"/>
<path fill-rule="evenodd" clip-rule="evenodd" d="M268.321 166.675L280.793 181.079V184.372L265.47 166.675H268.321Z" fill="url(#paint38_linear_260_69)"/>
<path fill-rule="evenodd" clip-rule="evenodd" d="M280.793 181.079L268.321 166.675H271.172L280.793 177.787V181.079Z" fill="url(#paint39_linear_260_69)"/>
<path fill-rule="evenodd" clip-rule="evenodd" d="M293.265 166.675L280.793 181.079V184.372L296.115 166.675H293.265Z" fill="url(#paint40_linear_260_69)"/>
<path fill-rule="evenodd" clip-rule="evenodd" d="M280.793 181.079L293.265 166.675H290.414L280.793 177.787V181.079Z" fill="url(#paint41_linear_260_69)"/>
<path fill-rule="evenodd" clip-rule="evenodd" d="M271.172 166.676L280.793 155.565L290.414 166.676L280.793 177.788L271.172 166.676Z" fill="#990099"/>
<path fill-rule="evenodd" clip-rule="evenodd" d="M274.379 166.676L280.793 159.68L286.85 166.676L280.793 174.084L274.379 166.676Z" fill="url(#paint42_linear_260_69)"/>
<path fill-rule="evenodd" clip-rule="evenodd" d="M274.379 166.676L280.793 159.68V155.565L271.172 166.676H274.379Z" fill="url(#paint43_linear_260_69)"/>
<path fill-rule="evenodd" clip-rule="evenodd" d="M286.851 166.676L280.793 159.68V155.565L290.414 166.676H286.851Z" fill="url(#paint44_linear_260_69)"/>
<path fill-rule="evenodd" clip-rule="evenodd" d="M274.379 166.675L280.793 174.083V177.787L271.172 166.675H274.379Z" fill="url(#paint45_linear_260_69)"/>
<path fill-rule="evenodd" clip-rule="evenodd" d="M286.851 166.675L280.793 174.083V177.787L290.414 166.675H286.851Z" fill="url(#paint46_linear_260_69)"/>
<defs>
<linearGradient id="paint0_linear_260_69" x1="110.897" y1="323.485" x2="148.02" y2="323.485" gradientUnits="userSpaceOnUse">
<stop stop-color="#945200"/>
<stop offset="1" stop-color="#E39919"/>
</linearGradient>
<linearGradient id="paint1_linear_260_69" x1="148.02" y1="323.485" x2="185.143" y2="323.485" gradientUnits="userSpaceOnUse">
<stop stop-color="#945200"/>
<stop offset="1" stop-color="#CF8300"/>
</linearGradient>
<linearGradient id="paint2_linear_260_69" x1="148.02" y1="18.2584" x2="148.02" y2="14.2702" gradientUnits="userSpaceOnUse">
<stop stop-color="#FFF18F"/>
<stop offset="1" stop-color="#FFFAE3"/>
</linearGradient>
<linearGradient id="paint3_linear_260_69" x1="148.021" y1="22.2458" x2="148.021" y2="18.2579" gradientUnits="userSpaceOnUse">
<stop stop-color="#6E4500"/>
<stop offset="1" stop-color="#CF9353"/>
</linearGradient>
<linearGradient id="paint4_linear_260_69" x1="11.9032" y1="24.6536" x2="29.8843" y2="24.6536" gradientUnits="userSpaceOnUse">
<stop stop-color="#F5AD24"/>
<stop offset="1" stop-color="#FFE56B"/>
</linearGradient>
<linearGradient id="paint5_linear_260_69" x1="15.3562" y1="28.1802" x2="32.5391" y2="28.1802" gradientUnits="userSpaceOnUse">
<stop stop-color="#6E4500"/>
<stop offset="1" stop-color="#CF9353"/>
</linearGradient>
<linearGradient id="paint6_linear_260_69" x1="11.9032" y1="166.75" x2="15.3561" y2="166.75" gradientUnits="userSpaceOnUse">
<stop stop-color="#F5AD24"/>
<stop offset="1" stop-color="#FFE56B"/>
</linearGradient>
<linearGradient id="paint7_linear_260_69" x1="15.3562" y1="166.749" x2="18.8095" y2="166.749" gradientUnits="userSpaceOnUse">
<stop stop-color="#AB671C"/>
<stop offset="1" stop-color="#784C00"/>
</linearGradient>
<linearGradient id="paint8_linear_260_69" x1="275.146" y1="35.0371" x2="275.146" y2="14.2702" gradientUnits="userSpaceOnUse">
<stop stop-color="#F5AD24"/>
<stop offset="1" stop-color="#FFE56B"/>
</linearGradient>
<linearGradient id="paint9_linear_260_69" x1="263.5" y1="28.1802" x2="280.683" y2="28.1802" gradientUnits="userSpaceOnUse">
<stop stop-color="#CF9353"/>
<stop offset="1" stop-color="#6E4500"/>
</linearGradient>
<linearGradient id="paint10_linear_260_69" x1="277.23" y1="166.749" x2="280.684" y2="166.749" gradientUnits="userSpaceOnUse">
<stop stop-color="#D18900"/>
<stop offset="1" stop-color="#F5B41E"/>
</linearGradient>
<linearGradient id="paint11_linear_260_69" x1="280.683" y1="166.75" x2="284.136" y2="166.75" gradientUnits="userSpaceOnUse">
<stop stop-color="#AB671C"/>
<stop offset="1" stop-color="#784C00"/>
</linearGradient>
<linearGradient id="paint12_linear_260_69" x1="263.501" y1="305.317" x2="280.684" y2="305.317" gradientUnits="userSpaceOnUse">
<stop stop-color="#FFBE45"/>
<stop offset="1" stop-color="#FFF0AB"/>
</linearGradient>
<linearGradient id="paint13_linear_260_69" x1="266.155" y1="308.844" x2="284.136" y2="308.844" gradientUnits="userSpaceOnUse">
<stop stop-color="#6E4500"/>
<stop offset="1" stop-color="#CF9353"/>
</linearGradient>
<linearGradient id="paint14_linear_260_69" x1="148.021" y1="315.24" x2="148.021" y2="311.252" gradientUnits="userSpaceOnUse">
<stop stop-color="#FFBE45"/>
<stop offset="1" stop-color="#FFF0AB"/>
</linearGradient>
<linearGradient id="paint15_linear_260_69" x1="148.02" y1="319.229" x2="148.02" y2="315.24" gradientUnits="userSpaceOnUse">
<stop stop-color="#472D00"/>
<stop offset="1" stop-color="#784814"/>
</linearGradient>
<linearGradient id="paint16_linear_260_69" x1="11.9032" y1="308.844" x2="29.8843" y2="308.844" gradientUnits="userSpaceOnUse">
<stop stop-color="#CF9353"/>
<stop offset="1" stop-color="#6E4500"/>
</linearGradient>
<linearGradient id="paint17_linear_260_69" x1="15.3562" y1="305.316" x2="32.5391" y2="305.316" gradientUnits="userSpaceOnUse">
<stop stop-color="#FFF0AB"/>
<stop offset="1" stop-color="#FFBE45"/>
</linearGradient>
<linearGradient id="paint18_linear_260_69" x1="95.3276" y1="6.98264" x2="148.02" y2="6.98264" gradientUnits="userSpaceOnUse">
<stop stop-color="#DE8C26"/>
<stop offset="0.7175" stop-color="#FFD24F"/>
<stop offset="1" stop-color="#FFE48A"/>
</linearGradient>
<linearGradient id="paint19_linear_260_69" x1="148.02" y1="6.98264" x2="200.712" y2="6.98264" gradientUnits="userSpaceOnUse">
<stop stop-color="#945200"/>
<stop offset="1" stop-color="#E39919"/>
</linearGradient>
<linearGradient id="paint20_linear_260_69" x1="101.039" y1="8.7528" x2="148.02" y2="8.7528" gradientUnits="userSpaceOnUse">
<stop stop-color="#473626"/>
<stop offset="1" stop-color="#E8E7B3"/>
</linearGradient>
<linearGradient id="paint21_linear_260_69" x1="-0.0181732" y1="157.872" x2="15.3556" y2="157.872" gradientUnits="userSpaceOnUse">
<stop stop-color="#FFF18F"/>
<stop offset="1" stop-color="#FFFAE3"/>
</linearGradient>
<linearGradient id="paint22_linear_260_69" x1="2.85653" y1="159.53" x2="15.3557" y2="159.53" gradientUnits="userSpaceOnUse">
<stop stop-color="#AB5F0B"/>
<stop offset="1" stop-color="#753C00"/>
</linearGradient>
<linearGradient id="paint23_linear_260_69" x1="15.3559" y1="157.872" x2="30.73" y2="157.872" gradientUnits="userSpaceOnUse">
<stop stop-color="#EDA85F"/>
<stop offset="1" stop-color="#A36700"/>
</linearGradient>
<linearGradient id="paint24_linear_260_69" x1="15.3559" y1="159.53" x2="27.8555" y2="159.53" gradientUnits="userSpaceOnUse">
<stop stop-color="#A15900"/>
<stop offset="1" stop-color="#E39644"/>
</linearGradient>
<linearGradient id="paint25_linear_260_69" x1="-0.0174605" y1="175.627" x2="15.3567" y2="175.627" gradientUnits="userSpaceOnUse">
<stop stop-color="#EDA85F"/>
<stop offset="1" stop-color="#A36700"/>
</linearGradient>
<linearGradient id="paint26_linear_260_69" x1="2.85724" y1="173.968" x2="15.3568" y2="173.968" gradientUnits="userSpaceOnUse">
<stop stop-color="#6E4500"/>
<stop offset="1" stop-color="#CF9353"/>
</linearGradient>
<linearGradient id="paint27_linear_260_69" x1="15.357" y1="175.627" x2="30.7304" y2="175.627" gradientUnits="userSpaceOnUse">
<stop stop-color="#AB5F0B"/>
<stop offset="1" stop-color="#753C00"/>
</linearGradient>
<linearGradient id="paint28_linear_260_69" x1="15.357" y1="173.968" x2="27.8558" y2="173.968" gradientUnits="userSpaceOnUse">
<stop stop-color="#FFBE45"/>
<stop offset="1" stop-color="#FFF0AB"/>
</linearGradient>
<linearGradient id="paint29_linear_260_69" x1="15.3567" y1="173.912" x2="15.3567" y2="159.588" gradientUnits="userSpaceOnUse">
<stop stop-color="#F72F2F"/>
<stop offset="1" stop-color="#FF8A8A"/>
</linearGradient>
<linearGradient id="paint30_linear_260_69" x1="12.256" y1="163.169" x2="10.2981" y2="161.474" gradientUnits="userSpaceOnUse">
<stop stop-color="#FF8C8C"/>
<stop offset="1" stop-color="#FF5252"/>
</linearGradient>
<linearGradient id="paint31_linear_260_69" x1="15.3562" y1="161.191" x2="24.9834" y2="161.191" gradientUnits="userSpaceOnUse">
<stop stop-color="#FF5E5E"/>
<stop offset="1" stop-color="#B80000"/>
</linearGradient>
<linearGradient id="paint32_linear_260_69" x1="5.73005" y1="172.291" x2="15.3565" y2="172.291" gradientUnits="userSpaceOnUse">
<stop stop-color="#FF5E5E"/>
<stop offset="1" stop-color="#B80000"/>
</linearGradient>
<linearGradient id="paint33_linear_260_69" x1="20.17" y1="172.291" x2="18.2121" y2="170.597" gradientUnits="userSpaceOnUse">
<stop stop-color="#FF6666"/>
<stop offset="1" stop-color="#DE0000"/>
</linearGradient>
<linearGradient id="paint34_linear_260_69" x1="265.309" y1="157.872" x2="280.683" y2="157.872" gradientUnits="userSpaceOnUse">
<stop stop-color="#FFF18F"/>
<stop offset="1" stop-color="#FFFAE3"/>
</linearGradient>
<linearGradient id="paint35_linear_260_69" x1="268.184" y1="159.53" x2="280.683" y2="159.53" gradientUnits="userSpaceOnUse">
<stop stop-color="#AB5F0B"/>
<stop offset="1" stop-color="#753C00"/>
</linearGradient>
<linearGradient id="paint36_linear_260_69" x1="280.683" y1="157.872" x2="296.057" y2="157.872" gradientUnits="userSpaceOnUse">
<stop stop-color="#EDA85F"/>
<stop offset="1" stop-color="#A36700"/>
</linearGradient>
<linearGradient id="paint37_linear_260_69" x1="280.683" y1="159.53" x2="293.182" y2="159.53" gradientUnits="userSpaceOnUse">
<stop stop-color="#A15900"/>
<stop offset="1" stop-color="#E39644"/>
</linearGradient>
<linearGradient id="paint38_linear_260_69" x1="265.31" y1="175.627" x2="280.684" y2="175.627" gradientUnits="userSpaceOnUse">
<stop stop-color="#EDA85F"/>
<stop offset="1" stop-color="#A36700"/>
</linearGradient>
<linearGradient id="paint39_linear_260_69" x1="268.184" y1="173.968" x2="280.684" y2="173.968" gradientUnits="userSpaceOnUse">
<stop stop-color="#6E4500"/>
<stop offset="1" stop-color="#CF9353"/>
</linearGradient>
<linearGradient id="paint40_linear_260_69" x1="280.684" y1="175.627" x2="296.057" y2="175.627" gradientUnits="userSpaceOnUse">
<stop stop-color="#AB5F0B"/>
<stop offset="1" stop-color="#753C00"/>
</linearGradient>
<linearGradient id="paint41_linear_260_69" x1="280.684" y1="173.968" x2="293.183" y2="173.968" gradientUnits="userSpaceOnUse">
<stop stop-color="#FFBE45"/>
<stop offset="1" stop-color="#FFF0AB"/>
</linearGradient>
<linearGradient id="paint42_linear_260_69" x1="280.683" y1="173.912" x2="280.683" y2="159.588" gradientUnits="userSpaceOnUse">
<stop stop-color="#F72F2F"/>
<stop offset="1" stop-color="#FF8A8A"/>
</linearGradient>
<linearGradient id="paint43_linear_260_69" x1="277.583" y1="163.169" x2="275.625" y2="161.474" gradientUnits="userSpaceOnUse">
<stop stop-color="#FF8C8C"/>
<stop offset="1" stop-color="#FF5252"/>
</linearGradient>
<linearGradient id="paint44_linear_260_69" x1="280.683" y1="161.191" x2="290.31" y2="161.191" gradientUnits="userSpaceOnUse">
<stop stop-color="#FF5E5E"/>
<stop offset="1" stop-color="#B80000"/>
</linearGradient>
<linearGradient id="paint45_linear_260_69" x1="271.057" y1="172.291" x2="280.683" y2="172.291" gradientUnits="userSpaceOnUse">
<stop stop-color="#FF5E5E"/>
<stop offset="1" stop-color="#B80000"/>
</linearGradient>
<linearGradient id="paint46_linear_260_69" x1="285.497" y1="172.291" x2="283.539" y2="170.597" gradientUnits="userSpaceOnUse">
<stop stop-color="#FF6666"/>
<stop offset="1" stop-color="#DE0000"/>
</linearGradient>
</defs>
</svg>
