<svg width="60" height="60" viewBox="0 0 60 60" fill="none" xmlns="http://www.w3.org/2000/svg">
<path d="M48.1753 13.3251C44.8503 11.7751 41.2503 10.6501 37.5003 10.0001C37.4674 9.99906 37.4347 10.0052 37.4045 10.0182C37.3742 10.0312 37.3472 10.0506 37.3253 10.0751C36.8753 10.9001 36.3503 11.9751 36.0003 12.8001C32.0228 12.2001 27.9778 12.2001 24.0003 12.8001C23.6503 11.9501 23.1253 10.9001 22.6503 10.0751C22.6253 10.0251 22.5503 10.0001 22.4753 10.0001C18.7253 10.6501 15.1503 11.7751 11.8003 13.3251C11.7753 13.3251 11.7503 13.3501 11.7253 13.3751C4.92529 23.5501 3.05029 33.4501 3.97529 43.2501C3.97529 43.3001 4.00029 43.3501 4.05029 43.3751C8.55029 46.6751 12.8753 48.6751 17.1503 50.0001C17.2253 50.0251 17.3003 50.0001 17.3253 49.9501C18.3253 48.5751 19.2253 47.1251 20.0003 45.6001C20.0503 45.5001 20.0003 45.4001 19.9003 45.3751C18.4753 44.8251 17.1253 44.1751 15.8003 43.4251C15.7003 43.3751 15.7003 43.2251 15.7753 43.1501C16.0503 42.9501 16.3253 42.7251 16.6003 42.5251C16.6503 42.4751 16.7253 42.4751 16.7753 42.5001C25.3753 46.4251 34.6503 46.4251 43.1503 42.5001C43.2003 42.4751 43.2753 42.4751 43.3253 42.5251C43.6003 42.7501 43.8753 42.9501 44.1503 43.1751C44.2503 43.2501 44.2503 43.4001 44.1253 43.4501C42.8253 44.2251 41.4503 44.8501 40.0253 45.4001C39.9253 45.4251 39.9003 45.5501 39.9253 45.6251C40.7253 47.1501 41.6253 48.6001 42.6003 49.9751C42.6753 50.0001 42.7503 50.0251 42.8253 50.0001C47.1253 48.6751 51.4503 46.6751 55.9503 43.3751C56.0003 43.3501 56.0253 43.3001 56.0253 43.2501C57.1253 31.9251 54.2003 22.1001 48.2753 13.3751C48.2503 13.3501 48.2253 13.3251 48.1753 13.3251ZM21.3003 37.2751C18.7253 37.2751 16.5753 34.9001 16.5753 31.9751C16.5753 29.0501 18.6753 26.6751 21.3003 26.6751C23.9503 26.6751 26.0503 29.0751 26.0253 31.9751C26.0253 34.9001 23.9253 37.2751 21.3003 37.2751ZM38.7253 37.2751C36.1503 37.2751 34.0003 34.9001 34.0003 31.9751C34.0003 29.0501 36.1003 26.6751 38.7253 26.6751C41.3753 26.6751 43.4753 29.0751 43.4503 31.9751C43.4503 34.9001 41.3753 37.2751 38.7253 37.2751Z" fill="url(#paint0_linear_260_392)"/>
<defs>
<linearGradient id="paint0_linear_260_392" x1="3.42503" y1="30.0052" x2="55.8401" y2="30.0052" gradientUnits="userSpaceOnUse">
<stop stop-color="#E4B43E"/>
<stop offset="0.320632" stop-color="#F7EF8A"/>
<stop offset="0.802083" stop-color="#D2AC47"/>
<stop offset="1" stop-color="#EDC967"/>
</linearGradient>
</defs>
</svg>
