<svg width="24" height="24" viewBox="0 0 24 24" fill="none" xmlns="http://www.w3.org/2000/svg">
<path d="M12.0001 8.87531C10.2798 8.87531 8.87589 10.2792 8.87589 11.9995C8.87589 13.7198 10.2798 15.1237 12.0001 15.1237C13.7204 15.1237 15.1243 13.7198 15.1243 11.9995C15.1243 10.2792 13.7204 8.87531 12.0001 8.87531ZM21.3704 11.9995C21.3704 10.7058 21.3821 9.42374 21.3095 8.13234C21.2368 6.63234 20.8946 5.30109 19.7978 4.20421C18.6985 3.10499 17.3696 2.76515 15.8696 2.69249C14.5759 2.61984 13.2939 2.63156 12.0025 2.63156C10.7087 2.63156 9.42667 2.61984 8.13527 2.69249C6.63527 2.76515 5.30402 3.10734 4.20714 4.20421C3.10792 5.30343 2.76808 6.63234 2.69542 8.13234C2.62277 9.42609 2.63449 10.7081 2.63449 11.9995C2.63449 13.2909 2.62277 14.5753 2.69542 15.8667C2.76808 17.3667 3.11027 18.698 4.20714 19.7948C5.30636 20.8941 6.63527 21.2339 8.13527 21.3066C9.42902 21.3792 10.711 21.3675 12.0025 21.3675C13.2962 21.3675 14.5782 21.3792 15.8696 21.3066C17.3696 21.2339 18.7009 20.8917 19.7978 19.7948C20.897 18.6956 21.2368 17.3667 21.3095 15.8667C21.3845 14.5753 21.3704 13.2933 21.3704 11.9995ZM12.0001 16.8066C9.33995 16.8066 7.19308 14.6597 7.19308 11.9995C7.19308 9.33937 9.33995 7.19249 12.0001 7.19249C14.6603 7.19249 16.8071 9.33937 16.8071 11.9995C16.8071 14.6597 14.6603 16.8066 12.0001 16.8066ZM17.004 8.11827C16.3829 8.11827 15.8814 7.61671 15.8814 6.99562C15.8814 6.37453 16.3829 5.87296 17.004 5.87296C17.6251 5.87296 18.1267 6.37453 18.1267 6.99562C18.1269 7.1431 18.0979 7.28917 18.0416 7.42546C17.9852 7.56175 17.9026 7.68558 17.7983 7.78987C17.694 7.89415 17.5701 7.97684 17.4339 8.0332C17.2976 8.08955 17.1515 8.11846 17.004 8.11827Z" fill="white"/>
</svg>
