<svg width="134" height="134" viewBox="0 0 134 134" fill="none" xmlns="http://www.w3.org/2000/svg">
<g filter="url(#filter0_i_260_128)">
<path d="M16.0955 51.3915L15.1974 50.1618C14.5618 50.626 14.3847 51.4982 14.7889 52.1735L16.0955 51.3915ZM26.4932 50.6285C25.7001 50.908 25.2837 51.7776 25.5633 52.5708C25.8428 53.3639 26.7125 53.7803 27.5056 53.5007L26.4932 50.6285ZM40.8695 69.6576C40.9844 70.4906 41.7529 71.0729 42.586 70.958C43.4191 70.843 44.0013 70.0745 43.8864 69.2414L40.8695 69.6576ZM65.2491 78.5947C65.2491 77.7542 64.5674 77.072 63.7264 77.072C62.8854 77.072 62.2037 77.7542 62.2037 78.5947H65.2491ZM22.4085 78.5947C22.4085 77.7542 21.7267 77.072 20.8858 77.072C20.0448 77.072 19.3631 77.7542 19.3631 78.5947H22.4085ZM65.2491 86.6576C65.2491 85.817 64.5674 85.1349 63.7264 85.1349C62.8854 85.1349 62.2037 85.817 62.2037 86.6576H65.2491ZM22.4085 86.6576C22.4085 85.817 21.7267 85.1349 20.8858 85.1349C20.0448 85.1349 19.3631 85.817 19.3631 86.6576H22.4085ZM27.2192 84.5524C28.0308 84.7725 28.8673 84.2928 29.0875 83.4812C29.3076 82.6696 28.8282 81.8336 28.0165 81.6128L27.2192 84.5524ZM38.4102 83.134C37.5705 83.0883 36.8529 83.7324 36.8075 84.5722C36.7622 85.412 37.4061 86.13 38.2458 86.1749L38.4102 83.134ZM67.2337 33.0291L68.6866 33.4848C68.8316 33.0226 68.748 32.5189 68.4614 32.1283C68.1747 31.7377 67.7194 31.5068 67.235 31.5064L67.2337 33.0291ZM55.084 43.0496C55.905 42.8673 56.4228 42.0539 56.2404 41.233C56.0582 40.412 55.2449 39.8942 54.4239 40.0765L55.084 43.0496ZM40.8596 69.779C40.9324 70.6168 41.6707 71.2369 42.5085 71.1641C43.3464 71.0912 43.9665 70.353 43.8936 69.5152L40.8596 69.779ZM41.7564 53.9116C41.7767 50.1424 40.2701 45.3089 35.6864 43.5262C31.1839 41.775 24.5426 43.3374 15.1974 50.1618L16.9935 52.6213C26.1973 45.9 31.6439 45.2216 34.5825 46.3645C37.4401 47.4759 38.7283 50.6713 38.711 53.8953L41.7564 53.9116ZM14.7889 52.1735C16.7162 55.3938 20.4569 58.7975 25.1941 60.0534C30.0465 61.3399 35.7405 60.3171 41.2872 55.0031L39.1803 52.8039C34.3345 57.4464 29.7154 58.1014 25.9746 57.1097C22.1188 56.0874 18.9865 53.2569 17.402 50.6095L14.7889 52.1735ZM41.4311 52.9628C40.0149 51.1601 37.5072 50.1589 34.9214 49.7917C32.2785 49.4164 29.2554 49.6549 26.4932 50.6285L27.5056 53.5007C29.7855 52.6971 32.3129 52.4973 34.4933 52.8069C36.7308 53.1246 38.3191 53.9314 39.0364 54.8442L41.4311 52.9628ZM38.7253 54.1116L40.8695 69.6576L43.8864 69.2414L41.7422 53.6954L38.7253 54.1116ZM62.2037 70.5321C62.2037 70.616 62.1333 71.0288 61.1864 71.6732C60.2903 72.283 58.8939 72.8925 57.0313 73.4286C53.3268 74.4949 48.1202 75.1751 42.3061 75.1751V78.2202C48.3221 78.2202 53.8256 77.5205 57.8737 76.3556C59.8875 75.7756 61.628 75.0565 62.8998 74.1909C64.1206 73.3601 65.2491 72.1509 65.2491 70.5321H62.2037ZM42.3061 75.1751C36.4919 75.1751 31.2854 74.4949 27.5809 73.4286C25.7183 72.8925 24.3219 72.283 23.4258 71.6732C22.4788 71.0288 22.4085 70.616 22.4085 70.5321H19.3631C19.3631 72.1509 20.4915 73.3601 21.7124 74.1909C22.9842 75.0565 24.7246 75.7756 26.7384 76.3556C30.7866 77.5205 36.2901 78.2202 42.3061 78.2202V75.1751ZM22.4085 70.5321C22.4085 70.4483 22.4788 70.0355 23.4258 69.391C24.3219 68.7812 25.7183 68.1718 27.5809 67.6356C31.2854 66.5693 36.4919 65.8891 42.3061 65.8891V62.8437C36.2901 62.8437 30.7866 63.5438 26.7384 64.709C24.7246 65.2886 22.9842 66.0077 21.7124 66.8732C20.4915 67.7041 19.3631 68.9133 19.3631 70.5321H22.4085ZM42.3061 65.8891C48.1202 65.8891 53.3268 66.5693 57.0313 67.6356C58.8939 68.1718 60.2903 68.7812 61.1864 69.391C62.1333 70.0355 62.2037 70.4483 62.2037 70.5321H65.2491C65.2491 68.9133 64.1207 67.7041 62.8998 66.8732C61.628 66.0077 59.8875 65.2886 57.8737 64.709C53.8256 63.5438 48.3221 62.8437 42.3061 62.8437V65.8891ZM62.2037 78.5947C62.2037 78.6785 62.1333 79.0919 61.1864 79.736C60.2903 80.3459 58.8939 80.955 57.0313 81.4917C53.3268 82.5576 48.1202 83.2375 42.3061 83.2375V86.283C48.3221 86.283 53.8256 85.5833 57.8737 84.4184C59.8875 83.8383 61.628 83.1195 62.8998 82.2539C64.1206 81.4232 65.2491 80.2134 65.2491 78.5947H62.2037ZM62.2037 86.6576C62.2037 86.7413 62.1333 87.1548 61.1864 87.7989C60.2903 88.4087 58.8939 89.0178 57.0313 89.5546C53.3268 90.6205 48.1202 91.3004 42.3061 91.3004V94.3458C48.3221 94.3458 53.8256 93.6461 57.8737 92.4805C59.8875 91.9011 61.628 91.1824 62.8998 90.3167C64.1207 89.4861 65.2491 88.2762 65.2491 86.6576H62.2037ZM42.3061 91.3004C36.4919 91.3004 31.2854 90.6205 27.5809 89.5546C25.7183 89.0178 24.3219 88.4087 23.4258 87.7989C22.4788 87.1548 22.4085 86.7413 22.4085 86.6576H19.3631C19.3631 88.2762 20.4915 89.4861 21.7124 90.3167C22.9842 91.1824 24.7246 91.9011 26.7384 92.4805C30.7866 93.6461 36.2901 94.3458 42.3061 94.3458V91.3004ZM62.2037 94.7204C62.2037 94.8042 62.1333 95.2176 61.1864 95.8617C60.2903 96.4716 58.8939 97.0807 57.0313 97.6174C53.3268 98.6833 48.1202 99.3632 42.3061 99.3632V102.409C48.3221 102.409 53.8256 101.709 57.8737 100.543C59.8875 99.9639 61.628 99.2452 62.8998 98.3795C64.1207 97.5489 65.2491 96.3391 65.2491 94.7204H62.2037ZM42.3061 99.3632C36.4919 99.3632 31.2854 98.6833 27.5809 97.6174C25.7183 97.0807 24.3219 96.4716 23.4258 95.8617C22.4788 95.2176 22.4085 94.8042 22.4085 94.7204H19.3631C19.3631 96.3391 20.4915 97.5489 21.7124 98.3795C22.9842 99.2452 24.7246 99.9639 26.7384 100.543C30.7866 101.709 36.2901 102.409 42.3061 102.409V99.3632ZM19.3631 70.5321V94.7204H22.4085V70.5321H19.3631ZM62.2037 70.5321V94.7204H65.2491V70.5321H62.2037ZM28.0165 81.6128C26.019 81.0715 24.5067 80.4426 23.5298 79.8053C22.4904 79.1269 22.4085 78.6838 22.4085 78.5947H19.3631C19.3631 80.2743 20.5749 81.5138 21.8653 82.3559C23.2183 83.2391 25.072 83.97 27.2192 84.5524L28.0165 81.6128ZM42.3061 83.2375C40.9739 83.2375 39.6716 83.2025 38.4102 83.134L38.2458 86.1749C39.5625 86.2465 40.9197 86.283 42.3061 86.283V83.2375ZM47.4305 48.8524C45.789 46.0212 45.1399 42.6191 47.1703 39.9611C49.2937 37.1814 54.7831 34.5414 67.2324 34.5518L67.235 31.5064C54.6381 31.4958 47.8061 34.1119 44.7502 38.1124C41.6014 42.2345 42.9152 47.1364 44.796 50.38L47.4305 48.8524ZM65.7807 32.5735C64.318 37.2377 62.129 42.8772 58.9542 46.4774C57.3866 48.2549 55.6669 49.4334 53.7723 49.8361C51.9057 50.233 49.6472 49.9243 46.8839 48.3028L45.3426 50.9295C48.6099 52.8466 51.64 53.403 54.4057 52.815C57.1436 52.2329 59.4001 50.5762 61.2383 48.4917C64.875 44.3678 67.2156 38.1752 68.6866 33.4848L65.7807 32.5735ZM47.5716 50.0541C47.8545 49.1122 48.7787 47.5412 50.2014 46.0701C51.614 44.6097 53.336 43.4376 55.084 43.0496L54.4239 40.0765C51.8852 40.6402 49.6613 42.2481 48.0124 43.9529C46.3736 45.6473 45.1208 47.6269 44.6549 49.1782L47.5716 50.0541ZM44.7063 49.0338C43.1674 52.7519 40.1951 62.137 40.8596 69.779L43.8936 69.5152C43.2931 62.6089 46.0409 53.7726 47.5202 50.1985L44.7063 49.0338Z" fill="#F9C454"/>
</g>
<g filter="url(#filter1_i_260_128)">
<path d="M74.0186 50.676L73.1205 49.4463C72.4849 49.9105 72.3077 50.7826 72.7119 51.458L74.0186 50.676ZM82.6884 49.8063C81.8951 50.0858 81.4786 50.9554 81.758 51.7486C82.0374 52.5417 82.9077 52.9581 83.7002 52.6785L82.6884 49.8063ZM94.6273 66.08C94.7415 66.913 95.5105 67.4953 96.3435 67.3803C97.1764 67.2654 97.7588 66.4969 97.6439 65.6638L94.6273 66.08ZM115.623 73.5678C115.623 72.7268 114.941 72.0451 114.1 72.0451C113.259 72.0451 112.577 72.7268 112.577 73.5678H115.623ZM79.5721 73.5678C79.5721 72.7268 78.8907 72.0451 78.0494 72.0451C77.2089 72.0451 76.5267 72.7268 76.5267 73.5678H79.5721ZM115.623 80.3526C115.623 79.5121 114.941 78.8299 114.1 78.8299C113.259 78.8299 112.577 79.5121 112.577 80.3526H115.623ZM79.5721 80.3526C79.5721 79.5121 78.8907 78.8299 78.0494 78.8299C77.2089 78.8299 76.5267 79.5121 76.5267 80.3526H79.5721ZM83.3158 78.8139C84.1274 79.0339 84.9641 78.555 85.1841 77.7427C85.4042 76.9311 84.9253 76.0949 84.1137 75.8747L83.3158 78.8139ZM92.81 77.1465C91.9702 77.1008 91.2522 77.745 91.2065 78.5847C91.1616 79.4245 91.8057 80.1417 92.6455 80.1874L92.81 77.1465ZM117.052 35.2239L118.504 35.6795C118.65 35.2173 118.566 34.7137 118.279 34.3231C117.993 33.9325 117.538 33.7016 117.053 33.7011L117.052 35.2239ZM106.88 43.8918C107.701 43.7095 108.218 42.8961 108.036 42.0751C107.855 41.2542 107.041 40.7364 106.22 40.9187L106.88 43.8918ZM94.6174 66.1701C94.6898 67.0079 95.4283 67.628 96.2666 67.5552C97.1041 67.4823 97.7238 66.7441 97.6515 65.9062L94.6174 66.1701ZM95.8539 52.798C95.8706 49.5829 94.5862 45.3856 90.5921 43.8323C86.6795 42.3105 80.9959 43.6953 73.1205 49.4463L74.9166 51.9057C82.6503 46.2578 87.1393 45.757 89.4881 46.6707C91.7562 47.5526 92.8229 50.1117 92.8084 52.7817L95.8539 52.798ZM72.7119 51.458C74.361 54.2132 77.5568 57.1229 81.6133 58.1983C85.7849 59.3042 90.6614 58.4144 95.3841 53.8894L93.2774 51.6903C89.2552 55.5437 85.4537 56.0657 82.3937 55.2546C79.2189 54.4128 76.631 52.0763 75.3252 49.894L72.7119 51.458ZM95.5288 51.8491C94.2817 50.2617 92.0981 49.4037 89.8947 49.0907C87.6342 48.7697 85.0509 48.9735 82.6884 49.8063L83.7002 52.6785C85.5808 52.0157 87.6685 51.8506 89.4668 52.106C91.3215 52.3694 92.5854 53.0328 93.1335 53.7306L95.5288 51.8491ZM92.8229 52.9979L94.6273 66.08L97.6439 65.6638L95.8394 52.5817L92.8229 52.9979ZM112.577 66.7829C112.577 66.7829 112.577 66.7831 112.577 66.7833C112.577 66.7836 112.577 66.7844 112.577 66.7858C112.576 66.7885 112.575 66.7953 112.571 66.8068C112.563 66.8299 112.542 66.8766 112.493 66.9463C112.389 67.0926 112.186 67.2993 111.827 67.5436C111.102 68.0365 109.955 68.5407 108.4 68.9884C105.309 69.8779 100.951 70.4487 96.0747 70.4487V73.4941C101.154 73.4941 105.808 72.9034 109.242 71.915C110.949 71.4238 112.44 70.81 113.54 70.0614C114.59 69.3474 115.623 68.2667 115.623 66.7829H112.577ZM96.0747 70.4487C91.1982 70.4487 86.8401 69.8779 83.7505 68.9884C82.195 68.5407 81.0469 68.0365 80.3228 67.5436C79.9635 67.2993 79.761 67.0926 79.6566 66.9463C79.6072 66.8766 79.5866 66.8299 79.579 66.8068C79.5744 66.7953 79.5729 66.7885 79.5729 66.7858C79.5721 66.7844 79.5721 66.7836 79.5721 66.7833C79.5721 66.7831 79.5721 66.7829 79.5721 66.7829H76.5267C76.5267 68.2667 77.5606 69.3474 78.6098 70.0614C79.7092 70.81 81.2014 71.4238 82.9077 71.915C86.3414 72.9034 90.9964 73.4941 96.0747 73.4941V70.4487ZM79.5721 66.7829C79.5721 66.7828 79.5721 66.7828 79.5721 66.7825C79.5721 66.7822 79.5721 66.7814 79.5729 66.78C79.5729 66.7774 79.5744 66.7706 79.579 66.759C79.5866 66.7359 79.6072 66.6891 79.6566 66.6195C79.761 66.4732 79.9635 66.2665 80.3228 66.0222C81.0469 65.5293 82.195 65.0251 83.7505 64.5774C86.8401 63.688 91.1982 63.1172 96.0747 63.1172V60.0717C90.9964 60.0717 86.3414 60.6624 82.9077 61.6508C81.2014 62.142 79.7092 62.7558 78.6098 63.5044C77.5606 64.2184 76.5267 65.299 76.5267 66.7829H79.5721ZM96.0747 63.1172C100.951 63.1172 105.309 63.688 108.4 64.5774C109.955 65.0251 111.102 65.5293 111.827 66.0222C112.186 66.2665 112.389 66.4732 112.493 66.6195C112.542 66.6891 112.563 66.7359 112.571 66.759C112.575 66.7706 112.576 66.7774 112.577 66.78C112.577 66.7814 112.577 66.7822 112.577 66.7825C112.577 66.7828 112.577 66.7828 112.577 66.7829H115.623C115.623 65.299 114.59 64.2184 113.54 63.5044C112.44 62.7558 110.949 62.142 109.242 61.6508C105.808 60.6624 101.154 60.0717 96.0747 60.0717V63.1172ZM112.577 73.5678C112.577 73.5679 112.577 73.568 112.577 73.5683C112.577 73.5685 112.577 73.5693 112.577 73.5707C112.576 73.5734 112.575 73.5801 112.571 73.5917C112.563 73.6149 112.542 73.6616 112.493 73.7312C112.389 73.8775 112.186 74.0842 111.827 74.3286C111.102 74.8214 109.955 75.3256 108.4 75.7733C105.309 76.6631 100.951 77.2333 96.0747 77.2333V80.2788C101.154 80.2788 105.808 79.688 109.242 78.6997C110.949 78.2086 112.44 77.595 113.54 76.8465C114.59 76.1323 115.623 75.0517 115.623 73.5678H112.577ZM112.577 80.3526C112.577 80.3526 112.577 80.3526 112.577 80.3534C112.577 80.3534 112.577 80.3542 112.577 80.3557C112.576 80.358 112.575 80.3648 112.571 80.3762C112.563 80.3998 112.542 80.4463 112.493 80.5163C112.389 80.6625 112.186 80.8688 111.827 81.1132C111.102 81.6066 109.955 82.1106 108.4 82.5583C105.309 83.4476 100.951 84.0186 96.0747 84.0186V87.064C101.154 87.064 105.808 86.4732 109.242 85.485C110.949 84.9939 112.44 84.3795 113.54 83.6311C114.59 82.9169 115.623 81.8365 115.623 80.3526H112.577ZM96.0747 84.0186C91.1982 84.0186 86.8401 83.4476 83.7505 82.5583C82.195 82.1106 81.0469 81.6066 80.3228 81.1132C79.9635 80.8688 79.761 80.6625 79.6566 80.5163C79.6072 80.4463 79.5866 80.3998 79.579 80.3762C79.5744 80.3648 79.5729 80.358 79.5729 80.3557C79.5721 80.3542 79.5721 80.3534 79.5721 80.3534C79.5721 80.3526 79.5721 80.3526 79.5721 80.3526H76.5267C76.5267 81.8365 77.5606 82.9169 78.6098 83.6311C79.7092 84.3795 81.2014 84.9939 82.9077 85.485C86.3414 86.4732 90.9964 87.064 96.0747 87.064V84.0186ZM112.577 87.1379C112.577 87.1387 112.577 87.1394 112.577 87.1409C112.576 87.1432 112.575 87.1501 112.571 87.1615C112.563 87.1843 112.542 87.2316 112.493 87.3008C112.389 87.447 112.186 87.6541 111.827 87.8985C111.102 88.3911 109.955 88.8951 108.4 89.3428C105.309 90.2328 100.951 90.8031 96.0747 90.8031V93.8486C101.154 93.8486 105.808 93.2585 109.242 92.2695C110.949 91.7784 112.44 91.1648 113.54 90.4163C114.59 89.7022 115.623 88.6218 115.623 87.1379H112.577ZM96.0747 90.8031C91.1982 90.8031 86.8401 90.2328 83.7505 89.3428C82.195 88.8951 81.0469 88.3911 80.3228 87.8985C79.9635 87.6541 79.761 87.447 79.6566 87.3008C79.6072 87.2316 79.5866 87.1843 79.579 87.1615C79.5744 87.1501 79.5729 87.1432 79.5729 87.1409C79.5721 87.1394 79.5721 87.1387 79.5721 87.1379H76.5267C76.5267 88.6218 77.5606 89.7022 78.6098 90.4163C79.7092 91.1648 81.2014 91.7784 82.9077 92.2695C86.3414 93.2585 90.9964 93.8486 96.0747 93.8486V90.8031ZM76.5267 66.7829V87.1379H79.5721V66.7829H76.5267ZM112.577 66.7829V87.1379H115.623V66.7829H112.577ZM84.1137 75.8747C82.444 75.422 81.1984 74.9014 80.4066 74.3843C80.013 74.1274 79.7868 73.9069 79.6688 73.7477C79.6125 73.6719 79.5889 73.6204 79.5797 73.5945C79.5752 73.5817 79.5737 73.5741 79.5729 73.5711C79.5721 73.5695 79.5721 73.5686 79.5721 73.5683C79.5721 73.568 79.5721 73.5679 79.5721 73.5678H76.5267C76.5267 75.1073 77.636 76.2131 78.7422 76.9349C79.9102 77.697 81.4976 78.3205 83.3158 78.8139L84.1137 75.8747ZM96.0747 77.2333C94.9585 77.2333 93.8667 77.2036 92.81 77.1465L92.6455 80.1874C93.7579 80.2476 94.9037 80.2788 96.0747 80.2788V77.2333ZM100.596 48.4182C99.2336 46.0684 98.7402 43.3244 100.36 41.2037C102.073 38.9613 106.586 36.7378 117.05 36.7466L117.053 33.7011C106.441 33.6922 100.585 35.8918 97.94 39.3549C95.2014 42.9398 96.3594 47.1836 97.9613 49.9458L100.596 48.4182ZM115.599 34.7683C114.369 38.6911 112.538 43.393 109.903 46.381C108.606 47.8526 107.201 48.8063 105.674 49.1311C104.174 49.4499 102.335 49.2097 100.049 47.8687L98.508 50.4954C101.298 52.1321 103.908 52.62 106.307 52.1099C108.678 51.6058 110.619 50.1739 112.187 48.3954C115.285 44.8836 117.266 39.6287 118.504 35.6795L115.599 34.7683ZM100.737 49.62C100.96 48.8756 101.713 47.586 102.893 46.3658C104.062 45.1562 105.471 44.2045 106.88 43.8918L106.22 40.9187C104.021 41.407 102.109 42.7946 100.703 44.2485C99.3074 45.692 98.2271 47.3903 97.8205 48.744L100.737 49.62ZM97.8715 48.5997C96.5719 51.7398 94.0533 59.6809 94.6174 66.1701L97.6515 65.9062C97.1513 60.1529 99.4452 52.7606 100.686 49.7644L97.8715 48.5997Z" fill="#F9C454"/>
</g>
<defs>
<filter id="filter0_i_260_128" x="14.5726" y="31.5063" width="54.1837" height="71.9851" filterUnits="userSpaceOnUse" color-interpolation-filters="sRGB">
<feFlood flood-opacity="0" result="BackgroundImageFix"/>
<feBlend mode="normal" in="SourceGraphic" in2="BackgroundImageFix" result="shape"/>
<feColorMatrix in="SourceAlpha" type="matrix" values="0 0 0 0 0 0 0 0 0 0 0 0 0 0 0 0 0 0 127 0" result="hardAlpha"/>
<feOffset dy="2.16553"/>
<feGaussianBlur stdDeviation="0.541382"/>
<feComposite in2="hardAlpha" operator="arithmetic" k2="-1" k3="1"/>
<feColorMatrix type="matrix" values="0 0 0 0 0 0 0 0 0 0 0 0 0 0 0 0 0 0 0.4 0"/>
<feBlend mode="normal" in2="shape" result="effect1_innerShadow_260_128"/>
</filter>
<filter id="filter1_i_260_128" x="72.4957" y="33.7011" width="46.0788" height="61.2302" filterUnits="userSpaceOnUse" color-interpolation-filters="sRGB">
<feFlood flood-opacity="0" result="BackgroundImageFix"/>
<feBlend mode="normal" in="SourceGraphic" in2="BackgroundImageFix" result="shape"/>
<feColorMatrix in="SourceAlpha" type="matrix" values="0 0 0 0 0 0 0 0 0 0 0 0 0 0 0 0 0 0 127 0" result="hardAlpha"/>
<feOffset dy="2.16553"/>
<feGaussianBlur stdDeviation="0.541382"/>
<feComposite in2="hardAlpha" operator="arithmetic" k2="-1" k3="1"/>
<feColorMatrix type="matrix" values="0 0 0 0 0 0 0 0 0 0 0 0 0 0 0 0 0 0 0.4 0"/>
<feBlend mode="normal" in2="shape" result="effect1_innerShadow_260_128"/>
</filter>
</defs>
</svg>
