<svg width="24" height="24" viewBox="0 0 24 24" fill="none" xmlns="http://www.w3.org/2000/svg">
<path d="M21.6001 12.1205C21.6001 10.9205 20.6401 9.96047 19.4401 10.0805C18.9601 10.0805 18.3601 10.3205 18.0001 10.6805C16.3201 9.60047 14.4001 8.88047 12.3601 8.88047L13.3201 4.32047L16.4401 5.04047C16.4401 5.88047 17.1601 6.48047 18.0001 6.48047C18.8401 6.48047 19.4401 5.76047 19.4401 4.92047C19.4401 4.08047 18.7201 3.48047 17.8801 3.48047C17.2801 3.48047 16.8001 3.84047 16.5601 4.32047L13.2001 3.48047H12.9601C12.8401 3.48047 12.8401 3.60047 12.8401 3.72047L11.6401 8.88047C9.60012 8.88047 7.68012 9.48047 6.00012 10.6805C5.16012 9.84047 3.84012 9.84047 3.00012 10.6805C2.16012 11.5205 2.16012 12.8405 3.00012 13.6805C3.12012 13.8005 3.36012 14.0405 3.60012 14.0405V14.6405C3.60012 17.8805 7.32012 20.5205 12.0001 20.5205C16.6801 20.5205 20.4001 17.8805 20.4001 14.6405V14.0405C21.1201 13.6805 21.6001 12.9605 21.6001 12.1205V12.1205ZM7.20012 13.6805C7.20012 12.8405 7.92012 12.2405 8.64012 12.2405C9.48012 12.2405 10.0801 12.9605 10.0801 13.6805C10.0801 14.4005 9.36012 15.1205 8.64012 15.1205C7.80012 15.1205 7.20012 14.5205 7.20012 13.6805ZM15.6001 17.6405C14.5201 18.3605 13.3201 18.8405 12.0001 18.7205C10.6801 18.7205 9.48012 18.3605 8.40012 17.6405C8.28012 17.5205 8.28012 17.2805 8.40012 17.0405C8.52012 16.9205 8.76012 16.9205 8.88012 17.0405C9.72012 17.6405 10.8001 18.0005 11.8801 17.8805C12.9601 18.0005 14.0401 17.6405 14.8801 17.0405C15.0001 16.9205 15.2401 16.9205 15.4801 17.0405C15.7201 17.1605 15.7201 17.4005 15.6001 17.6405ZM15.2401 15.1205C14.4001 15.1205 13.8001 14.4005 13.8001 13.6805C13.8001 12.9605 14.5201 12.2405 15.2401 12.2405C16.0801 12.2405 16.6801 12.9605 16.6801 13.6805C16.8001 14.5205 16.0801 15.1205 15.2401 15.1205Z" fill="white"/>
</svg>
