<svg width="134" height="134" viewBox="0 0 134 134" fill="none" xmlns="http://www.w3.org/2000/svg">
<g filter="url(#filter0_i_260_193)">
<path fill-rule="evenodd" clip-rule="evenodd" d="M54.8917 30.189C53.8952 29.8717 52.8316 30.4269 52.516 31.4291C52.2005 32.4313 52.7525 33.5009 53.749 33.8182L59.7238 35.721C49.7263 36.0725 41.0597 42.2056 36.2605 51.1254C36.0357 51.5431 35.8194 51.9669 35.6117 52.3967C31.1134 52.5858 26.7881 54.9535 24.262 59.1059C20.2343 65.7268 22.3061 74.3777 28.8896 78.4284C30.7048 79.5454 32.6734 80.1956 34.6572 80.4133C35.3806 82.2284 36.2524 83.9559 37.2568 85.5769C42.2088 93.5666 50.4252 98.9936 59.9184 99.2654C60.9633 99.2951 61.8344 98.4675 61.8642 97.4168C61.8939 96.3662 61.0711 95.4898 60.0262 95.4601C51.9713 95.2294 44.8456 90.624 40.4692 83.5631C39.8189 82.5139 39.2302 81.4114 38.7094 80.2626C42.4773 79.5644 45.9459 77.3199 48.1028 73.7744C52.1305 67.1536 50.0587 58.5026 43.4753 54.452C42.2559 53.7019 40.9674 53.1621 39.6516 52.8226C44.0316 44.769 51.8275 39.5457 60.5529 39.5121L56.2073 44.5879C55.5253 45.3845 55.6146 46.5863 56.4067 47.2722C57.1988 47.9581 58.3939 47.8684 59.0759 47.0717L67.6655 37.0386C68.0805 36.554 68.2256 35.8921 68.0519 35.2769C67.8783 34.6616 67.4089 34.1752 66.8026 33.9822L54.8917 30.189ZM44.8739 71.7878C41.9371 76.6149 35.6652 78.1345 30.865 75.1811C26.0649 72.2277 24.5542 65.9201 27.491 61.0926C30.4277 56.2651 36.6996 54.746 41.4998 57.6994C46.2999 60.6527 47.8106 66.9604 44.8739 71.7878ZM73.3929 35.4635C73.4226 34.4127 74.2938 33.5852 75.3387 33.6151C84.8318 33.8871 93.0482 39.3141 98.0001 47.3039C99.0229 48.9544 99.9087 50.7162 100.64 52.5682C102.372 52.8533 104.08 53.4738 105.67 54.452C112.253 58.5026 114.325 67.1536 110.297 73.7744C107.907 77.7044 103.904 80.0357 99.6687 80.4346C99.4537 80.8815 99.2296 81.3216 98.9964 81.7548C94.1974 90.675 85.5305 96.8077 75.5331 97.1595L81.5075 99.0621C82.5046 99.3796 83.0564 100.449 82.7408 101.451C82.4251 102.453 81.3614 103.009 80.3651 102.692L68.4543 98.8984C67.848 98.7051 67.3787 98.2186 67.2049 97.6034C67.0313 96.9882 67.1764 96.3266 67.5913 95.8416L76.1808 85.8091C76.8629 85.0119 78.0583 84.9221 78.8502 85.6081C79.6421 86.2941 79.7314 87.4963 79.0493 88.2927L74.7039 93.3687C83.3774 93.3352 91.132 88.1739 95.526 80.2024C93.996 79.8819 92.494 79.2956 91.0843 78.4284C84.5009 74.3777 82.4288 65.7268 86.4564 59.1059C88.7367 55.3575 92.4834 53.0634 96.4996 52.5134C95.9909 51.4023 95.4185 50.3349 94.7879 49.3175C90.4113 42.2563 83.2858 37.6512 75.2309 37.4203C74.186 37.3904 73.3631 36.5143 73.3929 35.4635ZM89.6853 61.0926C92.6219 56.2651 98.8942 54.746 103.695 57.6994C108.494 60.6527 110.005 66.9604 107.068 71.7878C104.132 76.6149 97.86 78.1345 93.0595 75.1811C88.2597 72.2277 86.7486 65.9201 89.6853 61.0926Z" fill="#F9C454"/>
</g>
<defs>
<filter id="filter0_i_260_193" x="22.2061" y="30.0997" width="90.1472" height="73.4287" filterUnits="userSpaceOnUse" color-interpolation-filters="sRGB">
<feFlood flood-opacity="0" result="BackgroundImageFix"/>
<feBlend mode="normal" in="SourceGraphic" in2="BackgroundImageFix" result="shape"/>
<feColorMatrix in="SourceAlpha" type="matrix" values="0 0 0 0 0 0 0 0 0 0 0 0 0 0 0 0 0 0 127 0" result="hardAlpha"/>
<feOffset dy="1.49509"/>
<feGaussianBlur stdDeviation="0.373771"/>
<feComposite in2="hardAlpha" operator="arithmetic" k2="-1" k3="1"/>
<feColorMatrix type="matrix" values="0 0 0 0 0 0 0 0 0 0 0 0 0 0 0 0 0 0 0.4 0"/>
<feBlend mode="normal" in2="shape" result="effect1_innerShadow_260_193"/>
</filter>
</defs>
</svg>
