<svg width="53" height="43" viewBox="0 0 53 43" fill="none" xmlns="http://www.w3.org/2000/svg">
<path d="M52.3 5C50.375 5.875 48.3 6.45 46.15 6.725C48.35 5.4 50.05 3.3 50.85 0.775C48.775 2.025 46.475 2.9 44.05 3.4C42.075 1.25 39.3 0 36.15 0C30.275 0 25.475 4.8 25.475 10.725C25.475 11.575 25.575 12.4 25.75 13.175C16.85 12.725 8.925 8.45 3.65 1.975C2.725 3.55 2.2 5.4 2.2 7.35C2.2 11.075 4.075 14.375 6.975 16.25C5.2 16.25 3.55 15.75 2.1 15V15.075C2.1 20.275 5.8 24.625 10.7 25.6C9.12682 26.0305 7.47524 26.0904 5.875 25.775C6.55402 27.9062 7.88384 29.771 9.67754 31.1073C11.4712 32.4436 13.6386 33.1842 15.875 33.225C12.0841 36.2261 7.38499 37.8483 2.55 37.825C1.7 37.825 0.85 37.775 0 37.675C4.75 40.725 10.4 42.5 16.45 42.5C36.15 42.5 46.975 26.15 46.975 11.975C46.975 11.5 46.975 11.05 46.95 10.575C49.05 9.075 50.85 7.175 52.3 5Z" fill="url(#paint0_linear_260_395)"/>
<defs>
<linearGradient id="paint0_linear_260_395" x1="-0.328603" y1="21.25" x2="51.8882" y2="21.25" gradientUnits="userSpaceOnUse">
<stop stop-color="#E4B43E"/>
<stop offset="0.320632" stop-color="#F7EF8A"/>
<stop offset="0.802083" stop-color="#D2AC47"/>
<stop offset="1" stop-color="#EDC967"/>
</linearGradient>
</defs>
</svg>
