<svg width="24" height="24" viewBox="0 0 24 24" fill="none" xmlns="http://www.w3.org/2000/svg">
<path d="M9.49997 16.5L16.5 12L9.49997 7.5V16.5ZM12 22C10.6166 22 9.31664 21.7373 8.09997 21.212C6.8833 20.6873 5.82497 19.975 4.92497 19.075C4.02497 18.175 3.31264 17.1167 2.78797 15.9C2.26264 14.6833 1.99997 13.3833 1.99997 12C1.99997 10.6167 2.26264 9.31667 2.78797 8.1C3.31264 6.88333 4.02497 5.825 4.92497 4.925C5.82497 4.025 6.8833 3.31233 8.09997 2.787C9.31664 2.26233 10.6166 2 12 2C13.3833 2 14.6833 2.26233 15.9 2.787C17.1166 3.31233 18.175 4.025 19.075 4.925C19.975 5.825 20.6873 6.88333 21.212 8.1C21.7373 9.31667 22 10.6167 22 12C22 13.3833 21.7373 14.6833 21.212 15.9C20.6873 17.1167 19.975 18.175 19.075 19.075C18.175 19.975 17.1166 20.6873 15.9 21.212C14.6833 21.7373 13.3833 22 12 22ZM12 20C14.2333 20 16.125 19.225 17.675 17.675C19.225 16.125 20 14.2333 20 12C20 9.76667 19.225 7.875 17.675 6.325C16.125 4.775 14.2333 4 12 4C9.76664 4 7.87497 4.775 6.32497 6.325C4.77497 7.875 3.99997 9.76667 3.99997 12C3.99997 14.2333 4.77497 16.125 6.32497 17.675C7.87497 19.225 9.76664 20 12 20Z" fill="black"/>
</svg>
