<svg width="60" height="60" viewBox="0 0 60 60" fill="none" xmlns="http://www.w3.org/2000/svg">
<path d="M55.1437 17.7375C54.8449 16.6276 54.2599 15.6156 53.4471 14.8028C52.6344 13.99 51.6224 13.405 50.5124 13.1063C46.4249 12 29.9999 12 29.9999 12C29.9999 12 13.5749 12 9.48745 13.1063C8.37752 13.405 7.36553 13.99 6.55276 14.8028C5.73999 15.6156 5.15495 16.6276 4.8562 17.7375C4.09297 21.9061 3.7226 26.1372 3.74995 30.375C3.7226 34.6128 4.09297 38.8439 4.8562 43.0125C5.15495 44.1224 5.73999 45.1344 6.55276 45.9472C7.36553 46.76 8.37752 47.345 9.48745 47.6437C13.5749 48.75 29.9999 48.75 29.9999 48.75C29.9999 48.75 46.4249 48.75 50.5124 47.6437C51.6224 47.345 52.6344 46.76 53.4471 45.9472C54.2599 45.1344 54.8449 44.1224 55.1437 43.0125C55.9069 38.8439 56.2773 34.6128 56.2499 30.375C56.2773 26.1372 55.9069 21.9061 55.1437 17.7375ZM24.7499 38.25V22.5L38.3812 30.375L24.7499 38.25Z" fill="url(#paint0_linear_260_396)"/>
<defs>
<linearGradient id="paint0_linear_260_396" x1="3.41866" y1="30.375" x2="55.8379" y2="30.375" gradientUnits="userSpaceOnUse">
<stop stop-color="#E4B43E"/>
<stop offset="0.320632" stop-color="#F7EF8A"/>
<stop offset="0.802083" stop-color="#D2AC47"/>
<stop offset="1" stop-color="#EDC967"/>
</linearGradient>
</defs>
</svg>
