<svg width="92" height="50" viewBox="0 0 92 50" fill="none" xmlns="http://www.w3.org/2000/svg">
<path d="M2.23499 33.9087H10.5698V36.5174H5.2611V37.7305H10.1264V39.8696H5.2611V41.0827H10.5698V43.6914H2.23499V33.9087ZM14.8609 38.5653L11.8087 33.9087H15.2391L16.8957 36.8305L18.5652 33.9087H21.9957L18.9435 38.5653L22.2566 43.6914H18.7218L16.8957 40.587L15.0826 43.6914H11.5348L14.8609 38.5653ZM33.1272 40.4566C32.8228 41.6218 32.2141 42.4957 31.3011 43.0784C30.3967 43.661 29.2663 43.9523 27.9097 43.9523C27.0923 43.9523 26.3489 43.8436 25.6793 43.6262C25.0184 43.4088 24.4488 43.0827 23.9706 42.6479C23.501 42.2131 23.1358 41.674 22.8749 41.0305C22.6227 40.387 22.4967 39.6436 22.4967 38.8001C22.4967 37.9479 22.6227 37.2044 22.8749 36.5696C23.1358 35.9261 23.501 35.387 23.9706 34.9522C24.4401 34.5174 25.0097 34.1913 25.6793 33.9739C26.3489 33.7566 27.0923 33.6479 27.9097 33.6479C28.6054 33.6479 29.2445 33.7261 29.8271 33.8826C30.4098 34.0392 30.9228 34.2696 31.3663 34.5739C31.8185 34.8783 32.1967 35.2609 32.5011 35.7218C32.8141 36.1827 33.0359 36.7131 33.1663 37.3131L30.1924 37.8348C30.0445 37.3131 29.788 36.9218 29.4228 36.6609C29.0576 36.3914 28.5532 36.2566 27.9097 36.2566C27.0923 36.2566 26.4923 36.4783 26.1097 36.9218C25.7271 37.3566 25.5358 37.9827 25.5358 38.8001C25.5358 39.6088 25.7271 40.2349 26.1097 40.6783C26.4923 41.1218 27.0923 41.3436 27.9097 41.3436C28.5358 41.3436 29.0271 41.2175 29.3837 40.9653C29.7489 40.7131 30.0054 40.3479 30.1532 39.8696L33.1272 40.4566ZM41.4531 40.1044H37.4879V43.6914H34.4618V33.9087H37.4879V37.4957H41.4531V33.9087H44.4792V43.6914H41.4531V40.1044ZM49.0038 33.9087H53.3343L56.8822 43.6914H53.6474L53.1387 42.1523H49.1864L48.6778 43.6914H45.456L49.0038 33.9087ZM52.356 39.7522L51.3778 36.8305H50.9473L49.9691 39.7522H52.356ZM57.8485 33.9087H60.8746L64.7355 39.1131V33.9087H67.7616V43.6914H64.7355L60.8746 38.5653V43.6914H57.8485V33.9087ZM73.9061 38.474H79.6061V43.6914H77.6626V42.7523C77.2626 43.1175 76.7887 43.4088 76.2409 43.6262C75.693 43.8436 75.0495 43.9523 74.3104 43.9523C73.5191 43.9523 72.7974 43.8436 72.1452 43.6262C71.5017 43.4088 70.9495 43.0827 70.4886 42.6479C70.0278 42.2131 69.6712 41.674 69.4191 41.0305C69.1669 40.387 69.0408 39.6436 69.0408 38.8001C69.0408 37.9479 69.1669 37.2044 69.4191 36.5696C69.6799 35.9261 70.0452 35.387 70.5147 34.9522C70.9843 34.5174 71.5539 34.1913 72.2234 33.9739C72.893 33.7566 73.6365 33.6479 74.4539 33.6479C75.6887 33.6479 76.7365 33.8913 77.5974 34.3783C78.467 34.8653 79.093 35.587 79.4757 36.5435L76.6191 37.5479C76.4452 37.1218 76.1843 36.8001 75.8365 36.5827C75.4974 36.3653 75.0365 36.2566 74.4539 36.2566C73.6365 36.2566 73.0365 36.4783 72.6539 36.9218C72.2713 37.3566 72.08 37.9827 72.08 38.8001C72.08 39.6088 72.2713 40.2349 72.6539 40.6783C73.0365 41.1218 73.6365 41.3436 74.4539 41.3436C74.993 41.3436 75.4322 41.2436 75.7713 41.0436C76.1191 40.8436 76.3756 40.5523 76.5409 40.1696H73.9061V38.474ZM81.0696 33.9087H89.4045V36.5174H84.0957V37.7305H88.961V39.8696H84.0957V41.0827H89.4045V43.6914H81.0696V33.9087Z" fill="url(#paint0_linear_36_174)"/>
<path d="M2.21058 8.72094H21.1915V12.3809L11.0059 24.3256H21.1915V30H1.95523L1.9836 26.2549L12.1692 14.3954H2.21058V8.72094ZM24.3703 8.72094H42.5V14.3954H30.9526V17.034H41.5354V21.687H30.9526V24.3256H42.5V30H24.3703V8.72094ZM45.677 8.72094H52.2594V21.5167C52.2594 22.1031 52.3539 22.6138 52.5431 23.0488C52.7322 23.465 52.997 23.8149 53.3375 24.0986C53.678 24.3634 54.0657 24.562 54.5008 24.6944C54.9547 24.8268 55.437 24.893 55.9477 24.893C56.4584 24.893 56.9313 24.8268 57.3663 24.6944C57.8014 24.562 58.1797 24.3634 58.5012 24.0986C58.8417 23.8149 59.1065 23.465 59.2956 23.0488C59.4848 22.6138 59.5794 22.1031 59.5794 21.5167V8.72094H66.1617V21.0628C66.1617 22.6138 65.9253 23.9851 65.4524 25.1767C64.9795 26.3684 64.2891 27.3614 63.3812 28.1558C62.4922 28.9502 61.4046 29.5555 60.1184 29.9716C58.8512 30.3688 57.4136 30.5674 55.8059 30.5674C54.236 30.5674 52.8268 30.3688 51.5784 29.9716C50.3301 29.5555 49.2614 28.9502 48.3724 28.1558C47.5023 27.3614 46.8308 26.3684 46.358 25.1767C45.904 23.9851 45.677 22.6138 45.677 21.0628V8.72094ZM71.098 22.6233C71.76 23.0016 72.4882 23.3515 73.2826 23.673C74.096 23.9757 74.9282 24.2405 75.7794 24.4674C76.6305 24.6755 77.4817 24.8457 78.3329 24.9781C79.184 25.0916 79.969 25.1484 80.6878 25.1484C81.5957 25.1484 82.2955 25.0538 82.7873 24.8647C83.2791 24.6566 83.525 24.3918 83.525 24.0702C83.525 23.7865 83.3264 23.5406 82.9291 23.3326C82.5319 23.1245 82.0118 22.9259 81.3687 22.7367C80.7256 22.5476 79.9879 22.3585 79.1557 22.1693C78.3234 21.9612 77.4723 21.7248 76.6022 21.46C75.751 21.1763 74.9093 20.8547 74.0771 20.4954C73.2448 20.1171 72.5071 19.6631 71.864 19.1335C71.2209 18.585 70.7008 17.9513 70.3036 17.2326C69.9064 16.4949 69.7078 15.6343 69.7078 14.6507C69.7078 13.705 69.9347 12.8349 70.3887 12.0405C70.8426 11.2271 71.5047 10.5273 72.3747 9.94094C73.2448 9.33567 74.304 8.8628 75.5524 8.52233C76.8197 8.18187 78.2572 8.01164 79.865 8.01164C81.5105 8.01164 82.9291 8.14404 84.1208 8.40885C85.3313 8.67365 86.3338 8.96683 87.1282 9.28838C88.055 9.68559 88.8495 10.1206 89.5115 10.5935L86.8729 15.4168C86.3622 15.133 85.7853 14.8777 85.1422 14.6507C84.4991 14.4048 83.8371 14.2062 83.1561 14.0549C82.4752 13.8847 81.8037 13.7523 81.1417 13.6577C80.4986 13.5631 79.9028 13.5158 79.3543 13.5158C78.4653 13.5158 77.756 13.6199 77.2264 13.8279C76.6967 14.036 76.4319 14.3292 76.4319 14.7074C76.4319 14.9912 76.6305 15.2371 77.0278 15.4451C77.425 15.6343 77.9451 15.8234 78.5882 16.0126C79.2313 16.2017 79.969 16.3909 80.8012 16.58C81.6335 16.7692 82.4752 17.0056 83.3264 17.2893C84.1964 17.5541 85.0476 17.8757 85.8798 18.254C86.7121 18.6323 87.4498 19.0957 88.0929 19.6442C88.736 20.1927 89.2561 20.8453 89.6533 21.6019C90.0505 22.3395 90.2491 23.2191 90.2491 24.2405C90.2491 25.016 90.06 25.7915 89.6817 26.567C89.3034 27.3425 88.7171 28.0423 87.9226 28.6665C87.1282 29.2907 86.1068 29.7919 84.8584 30.1702C83.629 30.5674 82.1536 30.766 80.4324 30.766C78.749 30.766 77.2074 30.6336 75.8078 30.3688C74.427 30.1229 73.2259 29.8392 72.2045 29.5177C71.0129 29.1583 69.9347 28.7422 68.9701 28.2693L71.098 22.6233Z" fill="url(#paint1_linear_36_174)"/>
<defs>
<linearGradient id="paint0_linear_36_174" x1="-0.587561" y1="39.6914" x2="18.6969" y2="81.8947" gradientUnits="userSpaceOnUse">
<stop stop-color="#00357C"/>
<stop offset="0.304577" stop-color="#065A8B"/>
<stop offset="0.765375" stop-color="#2AB8D6"/>
<stop offset="1" stop-color="#87F6FF"/>
</linearGradient>
<linearGradient id="paint1_linear_36_174" x1="12.7563" y1="4.33613" x2="36.7776" y2="59.4219" gradientUnits="userSpaceOnUse">
<stop stop-color="#2C6AB8"/>
<stop offset="0.336248" stop-color="#0E89D0"/>
<stop offset="0.765375" stop-color="#48D1ED"/>
<stop offset="1" stop-color="#C9F9FD"/>
</linearGradient>
</defs>
</svg>
