<svg width="92" height="50" viewBox="0 0 92 50" fill="none" xmlns="http://www.w3.org/2000/svg">
<path d="M2.23499 33.909H10.5698V36.5177H5.2611V37.7307H10.1264V39.8699H5.2611V41.0829H10.5698V43.6917H2.23499V33.909ZM14.8609 38.5655L11.8087 33.909H15.2391L16.8957 36.8307L18.5652 33.909H21.9957L18.9435 38.5655L22.2566 43.6917H18.7218L16.8957 40.5873L15.0826 43.6917H11.5348L14.8609 38.5655ZM33.1272 40.4568C32.8228 41.6221 32.2141 42.496 31.3011 43.0786C30.3967 43.6612 29.2663 43.9525 27.9097 43.9525C27.0923 43.9525 26.3489 43.8438 25.6793 43.6264C25.0184 43.409 24.4488 43.083 23.9706 42.6482C23.501 42.2134 23.1358 41.6742 22.8749 41.0308C22.6227 40.3873 22.4967 39.6438 22.4967 38.8003C22.4967 37.9481 22.6227 37.2046 22.8749 36.5699C23.1358 35.9264 23.501 35.3872 23.9706 34.9525C24.4401 34.5177 25.0097 34.1916 25.6793 33.9742C26.3489 33.7568 27.0923 33.6481 27.9097 33.6481C28.6054 33.6481 29.2445 33.7264 29.8271 33.8829C30.4098 34.0394 30.9228 34.2698 31.3663 34.5742C31.8185 34.8785 32.1967 35.2612 32.5011 35.722C32.8141 36.1829 33.0359 36.7133 33.1663 37.3133L30.1924 37.8351C30.0445 37.3133 29.788 36.922 29.4228 36.6612C29.0576 36.3916 28.5532 36.2568 27.9097 36.2568C27.0923 36.2568 26.4923 36.4786 26.1097 36.922C25.7271 37.3568 25.5358 37.9829 25.5358 38.8003C25.5358 39.609 25.7271 40.2351 26.1097 40.6786C26.4923 41.1221 27.0923 41.3438 27.9097 41.3438C28.5358 41.3438 29.0271 41.2177 29.3837 40.9655C29.7489 40.7134 30.0054 40.3481 30.1532 39.8699L33.1272 40.4568ZM41.4531 40.1047H37.4879V43.6917H34.4618V33.909H37.4879V37.496H41.4531V33.909H44.4792V43.6917H41.4531V40.1047ZM49.0038 33.909H53.3343L56.8822 43.6917H53.6474L53.1387 42.1525H49.1864L48.6778 43.6917H45.456L49.0038 33.909ZM52.356 39.7525L51.3778 36.8307H50.9473L49.9691 39.7525H52.356ZM57.8485 33.909H60.8746L64.7355 39.1134V33.909H67.7616V43.6917H64.7355L60.8746 38.5655V43.6917H57.8485V33.909ZM73.9061 38.4742H79.6061V43.6917H77.6626V42.7525C77.2626 43.1177 76.7887 43.409 76.2409 43.6264C75.693 43.8438 75.0495 43.9525 74.3104 43.9525C73.5191 43.9525 72.7974 43.8438 72.1452 43.6264C71.5017 43.409 70.9495 43.083 70.4886 42.6482C70.0278 42.2134 69.6712 41.6742 69.4191 41.0308C69.1669 40.3873 69.0408 39.6438 69.0408 38.8003C69.0408 37.9481 69.1669 37.2046 69.4191 36.5699C69.6799 35.9264 70.0452 35.3872 70.5147 34.9525C70.9843 34.5177 71.5539 34.1916 72.2234 33.9742C72.893 33.7568 73.6365 33.6481 74.4539 33.6481C75.6887 33.6481 76.7365 33.8916 77.5974 34.3785C78.467 34.8655 79.093 35.5872 79.4757 36.5438L76.6191 37.5481C76.4452 37.122 76.1843 36.8003 75.8365 36.5829C75.4974 36.3655 75.0365 36.2568 74.4539 36.2568C73.6365 36.2568 73.0365 36.4786 72.6539 36.922C72.2713 37.3568 72.08 37.9829 72.08 38.8003C72.08 39.609 72.2713 40.2351 72.6539 40.6786C73.0365 41.1221 73.6365 41.3438 74.4539 41.3438C74.993 41.3438 75.4322 41.2438 75.7713 41.0438C76.1191 40.8438 76.3756 40.5525 76.5409 40.1699H73.9061V38.4742ZM81.0696 33.909H89.4045V36.5177H84.0957V37.7307H88.961V39.8699H84.0957V41.0829H89.4045V43.6917H81.0696V33.909Z" fill="url(#paint0_radial_8_162)"/>
<path d="M2.21058 8.72094H21.1915V12.3809L11.0059 24.3256H21.1915V30H1.95523L1.9836 26.2549L12.1692 14.3954H2.21058V8.72094ZM24.3703 8.72094H42.5V14.3954H30.9526V17.034H41.5354V21.687H30.9526V24.3256H42.5V30H24.3703V8.72094ZM45.677 8.72094H52.2594V21.5167C52.2594 22.1031 52.3539 22.6138 52.5431 23.0488C52.7322 23.465 52.997 23.8149 53.3375 24.0986C53.678 24.3634 54.0657 24.562 54.5008 24.6944C54.9547 24.8268 55.437 24.893 55.9477 24.893C56.4584 24.893 56.9313 24.8268 57.3663 24.6944C57.8014 24.562 58.1797 24.3634 58.5012 24.0986C58.8417 23.8149 59.1065 23.465 59.2956 23.0488C59.4848 22.6138 59.5794 22.1031 59.5794 21.5167V8.72094H66.1617V21.0628C66.1617 22.6138 65.9253 23.9851 65.4524 25.1767C64.9795 26.3684 64.2891 27.3614 63.3812 28.1558C62.4922 28.9502 61.4046 29.5555 60.1184 29.9716C58.8512 30.3688 57.4136 30.5674 55.8059 30.5674C54.236 30.5674 52.8268 30.3688 51.5784 29.9716C50.3301 29.5555 49.2614 28.9502 48.3724 28.1558C47.5023 27.3614 46.8308 26.3684 46.358 25.1767C45.904 23.9851 45.677 22.6138 45.677 21.0628V8.72094ZM71.098 22.6233C71.76 23.0016 72.4882 23.3515 73.2826 23.673C74.096 23.9757 74.9282 24.2405 75.7794 24.4674C76.6305 24.6755 77.4817 24.8457 78.3329 24.9781C79.184 25.0916 79.969 25.1484 80.6878 25.1484C81.5957 25.1484 82.2955 25.0538 82.7873 24.8647C83.2791 24.6566 83.525 24.3918 83.525 24.0702C83.525 23.7865 83.3264 23.5406 82.9291 23.3326C82.5319 23.1245 82.0118 22.9259 81.3687 22.7367C80.7256 22.5476 79.9879 22.3585 79.1557 22.1693C78.3234 21.9612 77.4723 21.7248 76.6022 21.46C75.751 21.1763 74.9093 20.8547 74.0771 20.4954C73.2448 20.1171 72.5071 19.6631 71.864 19.1335C71.2209 18.585 70.7008 17.9513 70.3036 17.2326C69.9064 16.4949 69.7078 15.6343 69.7078 14.6507C69.7078 13.705 69.9347 12.8349 70.3887 12.0405C70.8426 11.2271 71.5047 10.5273 72.3747 9.94094C73.2448 9.33567 74.304 8.8628 75.5524 8.52233C76.8197 8.18187 78.2572 8.01164 79.865 8.01164C81.5105 8.01164 82.9291 8.14404 84.1208 8.40885C85.3313 8.67365 86.3338 8.96683 87.1282 9.28838C88.055 9.68559 88.8495 10.1206 89.5115 10.5935L86.8729 15.4168C86.3622 15.133 85.7853 14.8777 85.1422 14.6507C84.4991 14.4048 83.8371 14.2062 83.1561 14.0549C82.4752 13.8847 81.8037 13.7523 81.1417 13.6577C80.4986 13.5631 79.9028 13.5158 79.3543 13.5158C78.4653 13.5158 77.756 13.6199 77.2264 13.8279C76.6967 14.036 76.4319 14.3292 76.4319 14.7074C76.4319 14.9912 76.6305 15.2371 77.0278 15.4451C77.425 15.6343 77.9451 15.8234 78.5882 16.0126C79.2313 16.2017 79.969 16.3909 80.8012 16.58C81.6335 16.7692 82.4752 17.0056 83.3264 17.2893C84.1964 17.5541 85.0476 17.8757 85.8798 18.254C86.7121 18.6323 87.4498 19.0957 88.0929 19.6442C88.736 20.1927 89.2561 20.8453 89.6533 21.6019C90.0505 22.3395 90.2491 23.2191 90.2491 24.2405C90.2491 25.016 90.06 25.7915 89.6817 26.567C89.3034 27.3425 88.7171 28.0423 87.9226 28.6665C87.1282 29.2907 86.1068 29.7919 84.8584 30.1702C83.629 30.5674 82.1536 30.766 80.4324 30.766C78.749 30.766 77.2074 30.6336 75.8078 30.3688C74.427 30.1229 73.2259 29.8392 72.2045 29.5177C71.0129 29.1583 69.9347 28.7422 68.9701 28.2693L71.098 22.6233Z" fill="url(#paint1_radial_8_162)"/>
<defs>
<radialGradient id="paint0_radial_8_162" cx="0" cy="0" r="1" gradientUnits="userSpaceOnUse" gradientTransform="translate(47.5024 39.8597) rotate(10.4768) scale(36.1647 15.495)">
<stop stop-color="#3FADED"/>
<stop offset="0.489583" stop-color="#48D1ED"/>
<stop offset="1" stop-color="#C9F9FD"/>
</radialGradient>
<radialGradient id="paint1_radial_8_162" cx="0" cy="0" r="1" gradientUnits="userSpaceOnUse" gradientTransform="translate(47.7395 21.8613) rotate(21.0375) scale(39.3857 31.6208)">
<stop stop-color="#3FADED"/>
<stop offset="0.489583" stop-color="#48D1ED"/>
<stop offset="1" stop-color="#C9F9FD"/>
</radialGradient>
</defs>
</svg>
